
<svg width="1440px" height="847px" viewBox="0 0 1440 847" version="1.1" xmlns="http://www.w3.org/2000/svg" xmlns:xlink="http://www.w3.org/1999/xlink">
    <defs>
        <polygon id="path-1" points="0.202418182 0.16495098 5.01706753 0.16495098 5.01706753 12.3864461 0.202418182 12.3864461"></polygon>
        <polygon id="path-3" points="0.116546218 0.122 12.6877311 0.122 12.6877311 4.80313636 0.116546218 4.80313636"></polygon>
        <polygon id="path-5" points="0.188923636 0.153954248 4.68259636 0.153954248 4.68259636 11.560683 0.188923636 11.560683"></polygon>
        <polygon id="path-7" points="0.108776471 0.113866667 11.8418824 0.113866667 11.8418824 4.48292727 0.108776471 4.48292727"></polygon>
    </defs>
    <g id="Desktop" stroke="none" stroke-width="1" fill="none" fill-rule="evenodd">
        <g id="OS-Home" transform="translate(0.000000, -2262.000000)">
            <g id="why-we-expand-module" transform="translate(0.000000, 2137.000000)">
                <polygon id="Rectangle-bg" fill="#F6F6F6" points="0 125.5 1440 125.5 1440 971.5 0 971.5"></polygon>
                <g id="star-blue" transform="translate(178.000000, 263.500000)">
                    <g id="Group-11">
                        <path d="M17.1428571,17.5 L12,17.5 L12,27.4183311 C12,28.8441523 13.1516244,30 14.5714286,30 C15.9917321,30 17.1428571,28.8441523 17.1428571,27.4183311 L17.1428571,17.5 Z" id="Fill-1" fill="#133E68"></path>
                        <g id="Group-5" transform="translate(12.000000, 0.000000)">
                            <mask id="mask-2" fill="white">
                                <use xlink:href="#path-1"></use>
                            </mask>
                            <g id="Clip-4"></g>
                            <path d="M5.01706753,2.68889706 C5.01706753,1.29453431 3.93940519,0.164877451 2.60997662,0.164877451 C1.94537922,0.164877451 1.34343117,0.447230392 0.907690909,0.904093137 C0.471950649,1.36046569 0.202418182,1.99183824 0.202418182,2.68889706 L0.202418182,12.3864461 L5.01706753,12.3864461 L5.01706753,2.68889706 Z" id="Fill-3" fill="#133E68" mask="url(#mask-2)"></path>
                        </g>
                        <path d="M2.47840212,12.5 C1.10913248,12.5 0,13.6193378 0,15.0001214 C0,15.6907559 0.277222958,16.3153615 0.726266394,16.7676118 C1.17410661,17.2196194 1.7937673,17.5 2.47840212,17.5 L12,17.5 L12,12.5 L2.47840212,12.5 Z" id="Fill-6" fill="#133E68"></path>
                        <g id="Group-10" transform="translate(17.142857, 12.500000)">
                            <mask id="mask-4" fill="white">
                                <use xlink:href="#path-3"></use>
                            </mask>
                            <g id="Clip-9"></g>
                            <path d="M10.0919244,4.80313636 C11.5251176,4.80313636 12.6878067,3.75540909 12.6878067,2.46268182 C12.6878067,1.16995455 11.5256218,0.122 10.0919244,0.122 L0.116546218,0.122 L0.116546218,4.80313636 L10.0919244,4.80313636 Z" id="Fill-8" fill="#133E68" mask="url(#mask-4)"></path>
                        </g>
                    </g>
                </g>
                <g id="star-blue" transform="translate(1117.000000, 852.500000)">
                    <g id="Group-11">
                        <path d="M16,16.3333333 L11.2,16.3333333 L11.2,25.5904424 C11.2,26.9212088 12.2748495,28 13.6,28 C14.9256166,28 16,26.9212088 16,25.5904424 L16,16.3333333 Z" id="Fill-1" fill="#133E68"></path>
                        <g id="Group-5" transform="translate(11.200000, 0.000000)">
                            <mask id="mask-6" fill="white">
                                <use xlink:href="#path-5"></use>
                            </mask>
                            <g id="Clip-4"></g>
                            <path d="M4.68259636,2.50963725 C4.68259636,1.20823203 3.67677818,0.153885621 2.43597818,0.153885621 C1.81568727,0.153885621 1.25386909,0.417415033 0.847178182,0.843820261 C0.440487273,1.26976797 0.188923636,1.85904902 0.188923636,2.50963725 L0.188923636,11.560683 L4.68259636,11.560683 L4.68259636,2.50963725 Z" id="Fill-3" fill="#133E68" mask="url(#mask-6)"></path>
                        </g>
                        <path d="M2.31317531,11.6666667 C1.03519031,11.6666667 0,12.7113819 0,14.0001133 C0,14.6447055 0.258741427,15.2276707 0.677848634,15.649771 C1.09583283,16.0716447 1.67418281,16.3333333 2.31317531,16.3333333 L11.2,16.3333333 L11.2,11.6666667 L2.31317531,11.6666667 Z" id="Fill-6" fill="#133E68"></path>
                        <g id="Group-10" transform="translate(16.000000, 11.666667)">
                            <mask id="mask-8" fill="white">
                                <use xlink:href="#path-7"></use>
                            </mask>
                            <g id="Clip-9"></g>
                            <path d="M9.41912941,4.48292727 C10.7567765,4.48292727 11.8419529,3.50504848 11.8419529,2.29850303 C11.8419529,1.09195758 10.7572471,0.113866667 9.41912941,0.113866667 L0.108776471,0.113866667 L0.108776471,4.48292727 L9.41912941,4.48292727 Z" id="Fill-8" fill="#133E68" mask="url(#mask-8)"></path>
                        </g>
                    </g>
                </g>
            </g>
        </g>
    </g>
</svg>