<?xml version="1.0" encoding="utf-8"?>
<!-- Generator: Adobe Illustrator 23.0.0, SVG Export Plug-In . SVG Version: 6.00 Build 0)  -->
<svg version="1.1" id="Layer_1" xmlns="http://www.w3.org/2000/svg" xmlns:xlink="http://www.w3.org/1999/xlink" x="0px" y="0px"
	 viewBox="0 0 1440 1526" style="enable-background:new 0 0 1440 1526;" xml:space="preserve">
<style type="text/css">
	.st0{fill-rule:evenodd;clip-rule:evenodd;fill:#133E68;}
	.st1{filter:url(#Adobe_OpacityMaskFilter);}
	.st2{fill-rule:evenodd;clip-rule:evenodd;fill:#FFFFFF;}
	.st3{opacity:0.3035;mask:url(#mask-2_1_);}
	.st4{fill-rule:evenodd;clip-rule:evenodd;fill:#FEFEFE;}
	.st5{filter:url(#Adobe_OpacityMaskFilter_1_);}
	.st6{mask:url(#mask-4_1_);fill-rule:evenodd;clip-rule:evenodd;fill:#FEFEFE;}
	.st7{filter:url(#Adobe_OpacityMaskFilter_2_);}
	.st8{opacity:0.3035;mask:url(#mask-2_2_);}
	.st9{fill-rule:evenodd;clip-rule:evenodd;fill:#000102;}
	.st10{filter:url(#Adobe_OpacityMaskFilter_3_);}
	.st11{mask:url(#mask-6_1_);fill-rule:evenodd;clip-rule:evenodd;fill:#000102;}
	.st12{filter:url(#Adobe_OpacityMaskFilter_4_);}
	.st13{mask:url(#mask-8_1_);fill-rule:evenodd;clip-rule:evenodd;fill:#000102;}
</style>
<g id="Desktop">
	<g id="OS-Home" transform="translate(0.000000, -773.000000)">
		<g id="bg-misc" transform="translate(0.000000, 773.000000)">
			<g id="bg">
				<g id="Mask" transform="translate(720.000000, 763.000000) scale(1, -1) translate(-720.000000, -763.000000) ">
					<polygon class="st0" points="0,1526 1440,1526 1440,0 0,0 					"/>
				</g>
				<defs>
					<filter id="Adobe_OpacityMaskFilter" filterUnits="userSpaceOnUse" x="1182" y="-273.7" width="430.9" height="478.1">
						<feColorMatrix  type="matrix" values="1 0 0 0 0  0 1 0 0 0  0 0 1 0 0  0 0 0 1 0"/>
					</filter>
				</defs>
				<mask maskUnits="userSpaceOnUse" x="1182" y="-273.7" width="430.9" height="478.1" id="mask-2_1_">
					<g class="st1">
						<polygon id="path-1_1_" class="st2" points="0,0 1440,0 1440,1526 0,1526 						"/>
					</g>
				</mask>
				<g id="misc" class="st3">
					<g transform="translate(1170.000000, -287.000000)">
						<path id="Fill-6" class="st4" d="M293.8,13.3L12,327c1.6,5,3.2,9.9,5.1,14.7L307,18.9C302.7,16.9,298.3,15,293.8,13.3"/>
						<path id="Fill-8" class="st4" d="M348.5,44.4L40,386.6c2.5,4,5.1,7.8,7.8,11.6L359,53C355.6,50,352.1,47.1,348.5,44.4"/>
						<path id="Fill-10" class="st4" d="M390.9,87.6L79,433.6c3.3,3.1,6.7,6.1,10.2,9L399,98.9C396.4,95.1,393.7,91.3,390.9,87.6"/>
						<path id="Fill-12" class="st4" d="M422.6,143.1L129,469.8c4.2,2.2,8.5,4.2,12.8,6L428,157.4
							C426.3,152.5,424.5,147.8,422.6,143.1"/>
						<g id="Group-16" transform="translate(192.000000, 212.973382)">
							<g id="Clip-15">
							</g>
							<defs>
								<filter id="Adobe_OpacityMaskFilter_1_" filterUnits="userSpaceOnUse" x="0.7" y="0.9" width="250.2" height="277.5">
									<feColorMatrix  type="matrix" values="1 0 0 0 0  0 1 0 0 0  0 0 1 0 0  0 0 0 1 0"/>
								</filter>
							</defs>
							<mask maskUnits="userSpaceOnUse" x="0.7" y="0.9" width="250.2" height="277.5" id="mask-4_1_">
								<g class="st5">
									<polygon id="path-3_1_" class="st2" points="0.7,0.9 250.9,0.9 250.9,278.4 0.7,278.4 									"/>
								</g>
							</mask>
							<path id="Fill-14" class="st6" d="M249.3,0.9L0.7,276.7c5.5,0.8,11.1,1.4,16.7,1.7l233.5-259C250.5,13.2,250,7,249.3,0.9"/>
						</g>
					</g>
				</g>
				<defs>
					<filter id="Adobe_OpacityMaskFilter_2_" filterUnits="userSpaceOnUse" x="-109.6" y="-70" width="773.8" height="703">
						<feColorMatrix  type="matrix" values="1 0 0 0 0  0 1 0 0 0  0 0 1 0 0  0 0 0 1 0"/>
					</filter>
				</defs>
				<mask maskUnits="userSpaceOnUse" x="-109.6" y="-70" width="773.8" height="703" id="mask-2_2_">
					<g class="st7">
						<polygon id="path-1_2_" class="st2" points="0,0 1440,0 1440,1526 0,1526 						"/>
					</g>
				</mask>
				<g class="st8">
					
						<g transform="translate(276.402472, 281.383908) rotate(95.000000) translate(-276.402472, -281.383908) translate(-75.097528, -109.116092)">
						<path id="Fill-1" class="st9" d="M185.9,45.5L41,206.3c-8.8,18.3-16.4,37.4-22.5,57.3l219-243.1
							C219.6,27.4,202.3,35.7,185.9,45.5"/>
						<g id="Group-5" transform="translate(0.500000, 0.554909)">
							<g id="Clip-4">
							</g>
							<defs>
								<filter id="Adobe_OpacityMaskFilter_3_" filterUnits="userSpaceOnUse">
									<feColorMatrix  type="matrix" values="1 0 0 0 0  0 1 0 0 0  0 0 1 0 0  0 0 0 1 0"/>
								</filter>
							</defs>
							<mask maskUnits="userSpaceOnUse" id="mask-6_1_">
								<g class="st10">
									<polygon id="path-5_1_" class="st2" points="0,0.3 382.8,0.3 382.8,425.9 0,425.9 									"/>
								</g>
							</mask>
							<path id="Fill-3" class="st11" d="M355.4,0.3L0,395.4c0.1,10.3,0.6,20.4,1.5,30.5l381.4-424C373.8,0.9,364.6,0.4,355.4,0.3"
								/>
						</g>
						<path class="st9" d="M465.6,21.6L19.5,518.9c2.5,7.9,5.1,15.6,8,23.3l459-511.6C479.6,27.3,472.7,24.4,465.6,21.6"/>
						<path class="st9" d="M552.9,70.5L63.5,613.6c4,6.3,8.1,12.4,12.4,18.4L569.5,84.2C564.1,79.4,558.5,74.9,552.9,70.5"/>
						<path class="st9" d="M125.5,687.7c5.2,4.9,10.6,9.7,16.1,14.2l490.9-544.8c-4.1-6.1-8.4-12.1-12.8-17.9L125.5,687.7z"/>
						<path class="st9" d="M669.9,227L204.5,744.6c6.7,3.4,13.4,6.6,20.3,9.6l453.7-504.6C675.8,241.9,673,234.4,669.9,227"/>
						<g transform="translate(305.500000, 339.049455)">
							<defs>
								<filter id="Adobe_OpacityMaskFilter_4_" filterUnits="userSpaceOnUse">
									<feColorMatrix  type="matrix" values="1 0 0 0 0  0 1 0 0 0  0 0 1 0 0  0 0 0 1 0"/>
								</filter>
							</defs>
							<mask maskUnits="userSpaceOnUse" id="mask-8_1_">
								<g class="st12">
									<polygon id="path-7_1_" class="st2" points="0,0.3 396.8,0.3 396.8,440.6 0,440.6 									"/>
								</g>
							</mask>
							<path class="st13" d="M394.3,0.3L0,437.8c8.7,1.3,17.5,2.2,26.5,2.8L396.8,29.7C396.3,19.8,395.4,10,394.3,0.3"/>
						</g>
						<path id="Fill-17" class="st9" d="M675.3,541.3c6-15.9,11.1-32.3,15.2-49.1l-247,274.1c15.2-4.6,29.9-10.2,44.2-16.9
							L675.3,541.3z"/>
					</g>
				</g>
			</g>
		</g>
	</g>
</g>
</svg>
