<svg width="59px" height="59px" viewBox="0 0 59 59" version="1.1" xmlns="http://www.w3.org/2000/svg" xmlns:xlink="http://www.w3.org/1999/xlink">
    <defs>
        <polygon id="path-1" points="0 0.246387324 58.6563909 0.246387324 58.6563909 58.9008779 0 58.9008779"></polygon>
    </defs>
    <g id="Symbols" stroke="none" stroke-width="1" fill="none" fill-rule="evenodd">
        <g id="osf-full-logo-dark">
            <g id="osf-full-logo">
                <g id="ISO">
                    <g id="Group-5">
                        <mask id="mask-2" fill="white">
                            <use xlink:href="#path-1"></use>
                        </mask>
                        <g id="Clip-3"></g>
                        <path d="M56.7135423,19.0977183 C55.3507254,15.5427606 53.3517887,12.3343239 50.7653451,9.55924648 C48.085831,6.69109859 44.8985845,4.41627465 41.2804718,2.80374648 C37.6694225,1.19080282 33.8460563,0.330316901 29.9250493,0.251788732 C26.1365845,0.178661972 22.4067042,0.829739437 18.8509155,2.19006338 C15.2951268,3.54955634 12.0854437,5.55264789 9.31493662,8.13909155 C6.44221831,10.8173592 4.16988732,14.0075141 2.5544507,17.6202254 C0.939429577,21.2337676 0.088084507,25.0554718 0.00540140845,28.9798028 C-0.0673098592,32.7707606 0.58584507,36.493162 1.94367606,40.0514437 C3.30524648,43.6068169 5.30709155,46.817331 7.89021127,49.587838 C10.5705563,52.4597254 13.7598803,54.7324718 17.373007,56.345831 C20.9861338,57.9600211 24.8095,58.8188451 28.7350775,58.8944648 C30.5703099,58.9331056 32.3897535,58.7968239 34.1855141,58.4939296 C36.0947042,58.1719225 37.9685775,57.6596197 39.8046408,56.9578521 C43.3600141,55.5971127 46.5688662,53.5981761 49.3389577,51.0125634 C52.214169,48.3334648 54.4844225,45.1453873 56.0990282,41.5297676 C57.7119718,37.9149789 58.5699648,34.0936901 58.6505704,30.1697746 C58.7257746,26.3784014 58.0717887,22.653507 56.7135423,19.0977183 L56.7135423,19.0977183 Z" id="Path" fill="#EC1944" mask="url(#mask-2)"></path>
                        <path d="M41.6431972,25.2736056 L38.7920845,31.6601479 L40.297,32.3332465 C40.4794014,32.4138521 40.4868803,32.6631479 40.3173592,32.7578803 L35.3837958,35.490993 C35.1079085,35.6447254 34.7626338,35.4897465 34.690338,35.1831127 L33.4347183,29.6853099 C33.392338,29.4945986 33.5826338,29.3350493 33.7625423,29.4160704 L35.2250775,30.0667324 L38.1048592,23.6091408 C39.2960775,20.9508169 38.3429366,17.7569225 35.7988732,16.3392606 C32.9037183,14.7167606 29.292669,15.9636549 27.9697394,18.9290282 L27.4183803,20.1609648 C26.9808662,21.1456831 25.8220563,21.5881831 24.8360915,21.1477606 C23.8505423,20.708169 23.4097042,19.5530986 23.8492958,18.5675493 L24.3998239,17.3360282 C26.5695282,12.4739296 32.3573451,10.3316479 37.1841268,12.653007 C41.8455423,14.896669 43.7514085,20.5494507 41.6431972,25.2736056 Z" id="Path" fill="#FFFFFF" mask="url(#mask-2)"></path>
                        <path d="M21.4747535,46.493662 C16.812507,44.2537394 14.9062254,38.5980493 17.0144366,33.8755563 L19.8638873,27.4894296 L18.3581408,26.8167465 C18.1790634,26.7373873 18.1686761,26.4872606 18.3398592,26.3912817 L23.2755,23.6569225 C23.5501408,23.5031901 23.8920915,23.6585845 23.9623099,23.9668803 L25.221669,29.4659296 C25.2669577,29.6541479 25.0708451,29.8149437 24.8934296,29.7355845 L23.4350493,29.0820141 L20.5477887,35.5429296 C19.3619718,38.1983451 20.3142817,41.3922394 22.8529437,42.8107324 C25.7547465,44.4324014 29.3608099,43.1859225 30.6870634,40.2201338 L31.2375915,38.9865352 C31.6796761,38.0026479 32.834331,37.5597324 33.8215423,38.0014014 C34.8070915,38.4405775 35.250838,39.5968944 34.8066761,40.5816127 L34.2561479,41.8135493 C32.0860282,46.6752324 26.3031972,48.8170986 21.4747535,46.493662 Z" id="Path" fill="#FFFFFF" mask="url(#mask-2)"></path>
                    </g>
                </g>
            </g>
        </g>
    </g>
</svg>