<?xml version="1.0" encoding="utf-8"?>
<!-- Generator: Adobe Illustrator 25.2.3, SVG Export Plug-In . SVG Version: 6.00 Build 0)  -->
<svg version="1.1" id="Layer_1" xmlns="http://www.w3.org/2000/svg" xmlns:xlink="http://www.w3.org/1999/xlink" x="0px" y="0px"
	 viewBox="0 0 16 16" style="enable-background:new 0 0 16 16;" xml:space="preserve">
<style type="text/css">
	.st0{fill-rule:evenodd;clip-rule:evenodd;fill:#2FB2DF;}
</style>
<path class="st0" d="M4,0C3.4,0,3,0.4,3,1v1H2C0.9,2,0,2.9,0,4v10c0,1.1,0.9,2,2,2h12c1.1,0,2-0.9,2-2V4c0-1.1-0.9-2-2-2h-1V1
	c0-0.6-0.4-1-1-1s-1,0.4-1,1v1H5V1C5,0.4,4.6,0,4,0z M4,5C3.4,5,3,5.4,3,6s0.4,1,1,1h8c0.6,0,1-0.4,1-1s-0.4-1-1-1H4z"/>
</svg>
