<svg width="38" height="15" viewBox="0 0 38 15" fill="none" xmlns="http://www.w3.org/2000/svg">
<path d="M0 3.00017V0H2.89206V3.00017H0ZM0 15V11.9998H2.89206V15H0ZM2.89206 5.99992V3.00017H5.78413V6.00033H2.89206V5.99992ZM2.89206 11.9998V8.99967H5.78413V11.9998H2.89206ZM5.78454 9.00008V5.99992H8.67661V9.00008H5.78454Z" fill="#00AEEF"/>
<path d="M11.5686 5.99992V3.00017H14.4607V6.00033H11.5686V5.99992ZM11.5686 15V11.9998H20.2452V15H11.5686ZM14.4607 3.00017V0H23.1373V3.00017H14.4607ZM14.4607 9.00008V5.99992H20.2448V9.00008H14.4607ZM20.2452 11.9998V8.99967H23.1373V11.9998H20.2452Z" fill="#02233C"/>
<path d="M26.0059 0H28.8979V11.9998H26.0059V0ZM28.8979 11.9998H34.682V15H28.8979V11.9998ZM34.6825 0H37.5745V15H34.6825V0Z" fill="#02233C"/>
<g opacity="0.2">
<path opacity="0.2" d="M2.98644 14.6426H0.022583V14.999H2.98644V14.6426Z" fill="#0C2848"/>
</g>
<g opacity="0.2">
<path opacity="0.2" d="M5.81993 11.6504H2.85608V12.0068H5.81993V11.6504Z" fill="#0C2848"/>
</g>
<g opacity="0.2">
<path opacity="0.2" d="M8.78417 8.64087H5.82031V8.99732H8.78417V8.64087Z" fill="#0C2848"/>
</g>
<g opacity="0.2">
<path opacity="0.2" d="M5.81993 5.677H2.85608V6.03345H5.81993V5.677Z" fill="#0C2848"/>
</g>
<g opacity="0.2">
<path opacity="0.2" d="M2.98644 2.71289H0.022583V3.06934H2.98644V2.71289Z" fill="#0C2848"/>
</g>
<g opacity="0.2">
<path opacity="0.2" d="M14.5325 5.677H11.5686V6.03345H14.5325V5.677Z" fill="#0C2848"/>
</g>
<g opacity="0.2">
<path opacity="0.2" d="M23.209 11.6504H20.2451V12.0068H23.209V11.6504Z" fill="#0C2848"/>
</g>
<g opacity="0.2">
<path opacity="0.2" d="M28.97 11.6504H26.0061V12.0068H28.97V11.6504Z" fill="#0C2848"/>
</g>
<g opacity="0.2">
<path opacity="0.2" d="M20.2319 14.6426H11.5686V14.999H20.2319V14.6426Z" fill="#0C2848"/>
</g>
<g opacity="0.2">
<path opacity="0.2" d="M20.2448 8.64087H14.4607V8.99732H20.2448V8.64087Z" fill="#0C2848"/>
</g>
<g opacity="0.2">
<path opacity="0.2" d="M23.1373 2.71289H14.4607V3.06934H23.1373V2.71289Z" fill="#0C2848"/>
</g>
<g opacity="0.2">
<path opacity="0.2" d="M37.5748 14.6426H28.8982V14.999H37.5748V14.6426Z" fill="#0C2848"/>
</g>
</svg>
