<?xml version="1.0" encoding="utf-8"?>
<!-- Generator: Adobe Illustrator 25.2.3, SVG Export Plug-In . SVG Version: 6.00 Build 0)  -->
<svg version="1.1" id="Layer_1" xmlns="http://www.w3.org/2000/svg" xmlns:xlink="http://www.w3.org/1999/xlink" x="0px" y="0px"
	 viewBox="0 0 1994.7 1383.9" style="enable-background:new 0 0 1994.7 1383.9;" xml:space="preserve">
<style type="text/css">
	.st0{fill:none;}
	.st1{fill:#FF0000;}
</style>
<path class="st0" d="M-250.4-557.5h2495.5V1938H-250.4V-557.5z"/>
<path class="st1" d="M1041.5,1378.4l-409.1-7.5c-132.5-2.6-265.3,2.6-395.1-24.4C39.7,1306.2,25.7,1108.3,11,942.3
	c-20.2-233.4-12.4-471,25.7-702.4C58.3,110,142.9,32.5,273.7,24.1c441.7-30.6,886.3-27,1327-12.7c46.5,1.3,93.4,8.5,139.3,16.6
	c226.5,39.7,232.1,264,246.8,452.8c14.6,190.7,8.5,382.4-19.5,571.9c-22.5,156.8-65.4,288.4-246.8,301.1
	c-227.2,16.6-449.2,30-677,25.7C1043.5,1378.4,1042.2,1378.4,1041.5,1378.4z M801,981.3c171.2-98.3,339.2-195,509.4-292.6
	c-171.5-98.3-339.2-195-509.4-292.6V981.3z"/>
</svg>
