
<svg width="110px" height="100px" viewBox="0 0 110 100" version="1.1" xmlns="http://www.w3.org/2000/svg" xmlns:xlink="http://www.w3.org/1999/xlink">
    <g id="Desktop" stroke="none" stroke-width="1" fill="none" fill-rule="evenodd">
        <g id="OS-Home" transform="translate(-295.000000, -3347.000000)" fill-rule="nonzero">
            <g id="projects-module" transform="translate(198.000000, 2980.000000)">
                <g id="projects-logos" transform="translate(97.000000, 366.000000)">
                    <g id="Airship_Icon_2Color_RGB" transform="translate(0.000000, 1.000000)">
                        <path d="M39.2374849,91.8145733 L32.9571942,88.1916668 C31.0382165,87.1313039 29.7298226,85.1873052 29.2936913,83.0665795 L26.9385823,70.8724063 C23.798437,65.5705919 20.3093866,55.6738716 20.3093866,55.6738716 L0.770704457,90.224029 C-1.40995203,94.0236626 1.29406201,98.7952956 5.65537499,98.7952956 L36.5334708,98.7952956 C37.2312809,98.7952956 37.929091,98.3534777 38.277996,97.7349327 L41.1564626,92.6098454 C40.5458788,92.4331183 39.8480687,92.1680276 39.2374849,91.8145733 Z" id="Path" fill="#65C7C2"></path>
                        <path d="M59.6648479,3.32768305 C57.4766976,-0.511643448 52.0500848,-0.511643448 49.8619345,3.32768305 L25.4421769,46.5424278 C26.142385,45.5602745 27.1926971,44.7566945 28.4180613,44.4888345 C36.3829285,42.3459546 52.4001889,39.4887814 64.8288827,46.8102878 C71.2182817,50.5603276 75.7696343,56.4532473 79.0080968,62.4354537 L91.9619467,62.4354537 C92.6621548,62.4354537 93.1873109,62.7033137 93.537415,63.2390337 L59.6648479,3.32768305 Z" id="Path" fill="#141F47"></path>
                        <path d="M109.313388,90.1724118 L94.2937605,63.9955499 C94.5512399,64.6866882 94.4654134,65.4642187 93.8646283,66.155357 L86.0544218,74.2762316 L110,91.9866497 C109.828347,91.3819037 109.570868,90.7771577 109.313388,90.1724118 Z" id="Path" fill="#65C7C2"></path>
                        <path d="M52.2593303,69.6251779 C40.9417991,62.9432825 31.8877742,54.4795483 25.5325451,47.3521933 L25.0972555,48.1540207 C24.4878499,49.134032 24.6619658,50.3813192 25.0101975,51.5395144 C26.2290086,56.0832032 28.4925148,62.9432825 32.4101218,69.3579021 L34.9348018,82.6326009 C35.0218597,83.2562445 35.3700915,83.7907961 35.892439,84.0580719 L42.1606102,87.7108414 C43.1182474,88.3344849 44.4241164,87.9781172 44.946464,86.9090139 L46.9487964,83.4344283 C52.7816779,86.3744623 59.2239649,87.1762897 65.2309622,87.0871978 L71.6732492,98.4909659 C72.5438285,100.094621 74.8943927,99.827345 75.4167403,98.0455062 L78.9861155,85.305359 C79.7696369,85.1271752 80.5531582,84.9489913 81.2496217,84.6817155 C82.7296066,84.3253477 83.8613597,83.3453364 84.5578231,82.0980493 C75.3296823,80.0489347 63.5768615,76.3070733 52.2593303,69.6251779 Z" id="Path" fill="#141F47"></path>
                        <path d="M106.258503,99.2472718 L83.691641,88.9605849 L80.8163265,99.517974 L104.428758,99.517974 C105.038673,99.6082081 105.735719,99.517974 106.258503,99.2472718 Z" id="Path" fill="#65C7C2"></path>
                    </g>
                </g>
            </g>
        </g>
    </g>
</svg>