
<svg width="103px" height="90px" viewBox="0 0 103 90" version="1.1" xmlns="http://www.w3.org/2000/svg" xmlns:xlink="http://www.w3.org/1999/xlink">
    <g id="Desktop" stroke="none" stroke-width="1" fill="none" fill-rule="evenodd">
        <g id="OS-Home" transform="translate(-1040.000000, -3355.000000)" fill="#071D49" fill-rule="nonzero">
            <g id="projects-module" transform="translate(198.000000, 2980.000000)">
                <g id="projects-logos" transform="translate(97.000000, 366.000000)">
                    <g id="Zuul_Logo_Full_RGB_DarkBlue" transform="translate(745.000000, 9.000000)">
                        <path d="M0,89.6221427 L103,89.6221427 L81.0092827,51.5535768 L81.0092827,38.5163967 L87.0936709,30.5202596 L68.8405063,30.5202596 L51.4565401,0.447830819 L34.0725738,30.6071741 L15.9063291,30.6071741 L21.9907173,38.6033113 L21.9907173,51.6404914 L0,89.6221427 Z M21.9037975,84.4072707 L8.95274262,84.4072707 L21.9037975,61.9833209 L21.9037975,84.4072707 Z M30.9434599,84.4072707 L27.1189873,84.4072707 L27.1189873,53.7264402 L30.8565401,53.7264402 L30.8565401,84.4072707 L30.9434599,84.4072707 Z M30.9434599,48.5115681 L27.1189873,48.5115681 L27.1189873,44.7742432 L30.8565401,44.7742432 L30.8565401,48.5115681 L30.9434599,48.5115681 Z M48.8489451,84.4072707 L36.07173,84.4072707 L36.07173,53.7264402 L48.8489451,53.7264402 L48.8489451,84.4072707 Z M66.8413502,84.4072707 L54.064135,84.4072707 L54.064135,53.7264402 L66.8413502,53.7264402 L66.8413502,84.4072707 Z M66.8413502,48.5115681 L36.07173,48.5115681 L36.07173,44.7742432 L66.7544304,44.7742432 L66.8413502,48.5115681 L66.8413502,48.5115681 Z M75.7940928,84.4072707 L72.0565401,84.4072707 L72.0565401,53.7264402 L75.7940928,53.7264402 L75.7940928,84.4072707 Z M75.7940928,48.5115681 L72.0565401,48.5115681 L72.0565401,44.7742432 L75.7940928,44.7742432 L75.7940928,48.5115681 Z M81.0092827,61.9833209 L93.9603376,84.4072707 L81.0092827,84.4072707 L81.0092827,61.9833209 Z M51.4565401,10.8775749 L62.843038,30.6071741 L40.0700422,30.6071741 L51.4565401,10.8775749 Z M76.5763713,35.8220462 L75.7940928,36.8650206 L75.7940928,39.5593711 L27.1189873,39.5593711 L27.1189873,36.778106 L26.3367089,35.7351316 L76.5763713,35.7351316 L76.5763713,35.8220462 Z" id="Shape"></path>
                    </g>
                </g>
            </g>
        </g>
    </g>
</svg>