
<svg width="101px" height="91px" viewBox="0 0 101 91" version="1.1" xmlns="http://www.w3.org/2000/svg" xmlns:xlink="http://www.w3.org/1999/xlink">
    <g id="Desktop" stroke="none" stroke-width="1" fill="none" fill-rule="evenodd">
        <g id="OS-Home" transform="translate(-856.000000, -3355.000000)" fill-rule="nonzero">
            <g id="projects-module" transform="translate(198.000000, 2980.000000)">
                <g id="projects-logos" transform="translate(97.000000, 366.000000)">
                    <g id="StarlingX_Icon_RGB_Stacked_2color" transform="translate(561.000000, 9.000000)">
                        <polygon id="Path" fill="#685BC7" points="47.8814815 18.153099 34.9569215 0.448690293 0 0.448690293 30.4030207 42.0927581"></polygon>
                        <path d="M44.8888889,61.6976209 L66.0543963,90.5513097 L101,90.5513097 L70.4512541,48.9072419 C63.737244,56.1060154 53.9691781,61.0447089 44.8888889,61.6976209 Z" id="Path" fill="#685BC7"></path>
                        <path d="M23.9946559,82.1684079 L42.6735223,56.9288765 L42.9352227,56.9288765 C52.5936032,56.9288765 63.9121457,50.8614424 70.045749,42.3073549 L89.1580567,16.4793155 C92.3991773,12.3449289 96.4260033,8.91187072 101,6.38350293 C95.8641296,4.22840337 88.04583,3.06796515 88.04583,3.06796515 C85.019919,0.448690293 78.1093927,0.448690293 78.1093927,0.448690293 C66.0957085,0.448690293 60.3873684,8.15731565 60.3873684,8.15731565 L34.045587,43.7993469 C49.7148988,43.6998807 52.8553036,41.2463828 62.4482591,28.6804946 L64.4519028,25.936887 C66.4579932,23.1876275 69.6324731,21.5665974 73.0062348,21.568666 L65.8830769,31.3163471 C55.4559514,44.9929405 51.1624291,48.1758568 33.0233198,48.1758568 L30.8234008,48.1758568 L0,89.7941448 L7.55659919,89.7941448 C13.3221862,89.7941448 20.3553846,86.694117 23.9946559,82.1684079 Z" id="Path" fill="#330072"></path>
                    </g>
                </g>
            </g>
        </g>
    </g>
</svg>