
<svg width="138px" height="134px" viewBox="0 0 138 134" version="1.1" xmlns="http://www.w3.org/2000/svg" xmlns:xlink="http://www.w3.org/1999/xlink">
    <g id="Desktop" stroke="none" stroke-width="1" fill="none" fill-rule="evenodd" opacity="0.98">
        <g id="OS-OSF-Projects" transform="translate(-125.000000, -634.000000)" fill="#EC1944" fill-rule="nonzero">
            <g id="OS" transform="translate(50.000000, 590.000000)">
                <g id="OpenStack-Logo-Mark" transform="translate(75.000000, 44.000000)">
                    <g id="Group">
                        <path d="M124.684865,0 L12.792973,0 C5.74847065,0.0202729984 0.0428626673,5.66702902 0.0223783784,12.638869 L0.0223783784,42.4273249 L31.0611892,42.4273249 L31.0611892,37.5622462 C31.0611892,33.7867113 34.1537641,30.7260355 37.9686486,30.7260355 L99.5315676,30.7260355 C103.346452,30.7260355 106.439027,33.7867113 106.439027,37.5622462 L106.439027,42.4273249 L137.500216,42.4273249 L137.500216,12.638869 C137.475559,5.65145542 131.745146,-4.2613441e-05 124.684865,2.09823752e-14 L124.684865,0 Z" id="Path"></path>
                        <path d="M106.416649,95.5888294 C106.412537,99.3626777 103.322369,102.420971 99.5091892,102.42504 L37.9462703,102.42504 C34.13309,102.420971 31.0429221,99.3626777 31.0388108,95.5888294 L31.0388108,90.7237508 L0,90.7237508 L0,120.504824 C0.0163881922,127.479547 5.72319012,133.130784 12.7705946,133.151076 L124.662486,133.151076 C131.734402,133.163327 137.479645,127.503776 137.500216,120.504824 L137.500216,90.7237508 L106.416649,90.7237508 L106.416649,95.5888294 Z" id="Path"></path>
                        <rect id="Rectangle" x="0" y="51.2125201" width="31.0462703" height="30.7260355"></rect>
                        <rect id="Rectangle" x="106.416649" y="51.2125201" width="31.0462703" height="30.7260355"></rect>
                    </g>
                </g>
            </g>
        </g>
    </g>
</svg>