
<svg width="177px" height="155px" viewBox="0 0 177 155" version="1.1" xmlns="http://www.w3.org/2000/svg" xmlns:xlink="http://www.w3.org/1999/xlink">
    <g id="Desktop" stroke="none" stroke-width="1" fill="none" fill-rule="evenodd">
        <g id="OS-OSF-Projects" transform="translate(-105.000000, -2724.000000)" fill="#071D49" fill-rule="nonzero">
            <g id="ZUUL" transform="translate(50.000000, 2680.000000)">
                <g id="Zuul_Logo_Full_RGB_DarkBlue" transform="translate(55.000000, 44.000000)">
                    <path d="M0,155 L177,155 L139.210127,88.8304094 L139.210127,66.1695906 L149.665823,52.2709552 L118.298734,52.2709552 L88.4253165,0 L58.5518987,52.4220273 L27.3341772,52.4220273 L37.7898734,66.3206628 L37.7898734,88.9814815 L0,155 Z M37.6405063,145.935673 L15.3848101,145.935673 L37.6405063,106.959064 L37.6405063,145.935673 Z M53.1746835,145.935673 L46.6025316,145.935673 L46.6025316,92.6072125 L53.0253165,92.6072125 L53.0253165,145.935673 L53.1746835,145.935673 Z M53.1746835,83.542885 L46.6025316,83.542885 L46.6025316,77.0467836 L53.0253165,77.0467836 L53.0253165,83.542885 L53.1746835,83.542885 Z M83.9443038,145.935673 L61.9873418,145.935673 L61.9873418,92.6072125 L83.9443038,92.6072125 L83.9443038,145.935673 Z M114.863291,145.935673 L92.9063291,145.935673 L92.9063291,92.6072125 L114.863291,92.6072125 L114.863291,145.935673 Z M114.863291,83.542885 L61.9873418,83.542885 L61.9873418,77.0467836 L114.713924,77.0467836 L114.863291,83.542885 L114.863291,83.542885 Z M130.248101,145.935673 L123.825316,145.935673 L123.825316,92.6072125 L130.248101,92.6072125 L130.248101,145.935673 Z M130.248101,83.542885 L123.825316,83.542885 L123.825316,77.0467836 L130.248101,77.0467836 L130.248101,83.542885 Z M139.210127,106.959064 L161.465823,145.935673 L139.210127,145.935673 L139.210127,106.959064 Z M88.4253165,18.128655 L107.992405,52.4220273 L68.8582278,52.4220273 L88.4253165,18.128655 Z M131.592405,61.4863548 L130.248101,63.2992203 L130.248101,67.9824561 L46.6025316,67.9824561 L46.6025316,63.1481481 L45.2582278,61.3352827 L131.592405,61.3352827 L131.592405,61.4863548 Z" id="Shape"></path>
                </g>
            </g>
        </g>
    </g>
</svg>