
<svg width="1440px" height="606px" viewBox="0 0 1440 606" version="1.1" xmlns="http://www.w3.org/2000/svg" xmlns:xlink="http://www.w3.org/1999/xlink">
    <defs>
        <polygon id="path-1" points="0 0 1442 0 1442 606 0 606"></polygon>
    </defs>
    <g id="Desktop" stroke="none" stroke-width="1" fill="none" fill-rule="evenodd">
        <g id="OS-Home" transform="translate(0.000000, -5670.000000)">
            <g id="trama-lineas-diagonales" transform="translate(0.000000, 5670.000000)">
                <mask id="mask-2" fill="white">
                    <use xlink:href="#path-1"></use>
                </mask>
                <use id="Mask" fill="#1FA1F2" xlink:href="#path-1"></use>
                <g mask="url(#mask-2)" stroke="#1E95DE" stroke-width="5.092">
                    <g transform="translate(-345.000000, 0.000000)">
                        <path d="M1068.38631,0.507015903 L0,1083.49298" id="Stroke-1"></path>
                        <path d="M1083.4058,0.507015903 L15.019489,1083.49298" id="Stroke-3"></path>
                        <path d="M1098.42529,0.507015903 L30.0389779,1083.49298" id="Stroke-5"></path>
                        <path d="M1112.44348,0.507015903 L44.0571676,1083.49298" id="Stroke-7"></path>
                        <path d="M1127.46297,0.507015903 L59.0766566,1083.49298" id="Stroke-9"></path>
                        <path d="M1141.48116,0.507015903 L73.0948463,1083.49298" id="Stroke-11"></path>
                        <path d="M1156.50065,0.507015903 L88.1143352,1083.49298" id="Stroke-13"></path>
                        <path d="M1171.52014,0.507015903 L103.133824,1083.49298" id="Stroke-15"></path>
                        <path d="M1185.53833,0.507015903 L117.152014,1083.49298" id="Stroke-17"></path>
                        <path d="M1200.55782,0.507015903 L132.171503,1083.49298" id="Stroke-19"></path>
                        <path d="M1214.57601,0.507015903 L146.189693,1083.49298" id="Stroke-21"></path>
                        <path d="M1229.5955,0.507015903 L161.209181,1083.49298" id="Stroke-23"></path>
                        <path d="M1244.61498,0.507015903 L176.22867,1083.49298" id="Stroke-25"></path>
                        <path d="M1258.63317,0.507015903 L190.24686,1083.49298" id="Stroke-27"></path>
                        <path d="M1273.65266,0.507015903 L205.266349,1083.49298" id="Stroke-29"></path>
                        <path d="M1287.67085,0.507015903 L219.284539,1083.49298" id="Stroke-31"></path>
                        <path d="M1302.69034,0.507015903 L234.304028,1083.49298" id="Stroke-33"></path>
                        <path d="M1317.70983,0.507015903 L249.323517,1083.49298" id="Stroke-35"></path>
                        <path d="M1331.72802,0.507015903 L263.341706,1083.49298" id="Stroke-37"></path>
                        <path d="M1346.74751,0.507015903 L278.361195,1083.49298" id="Stroke-39"></path>
                        <path d="M1360.7657,0.507015903 L292.379385,1083.49298" id="Stroke-41"></path>
                        <path d="M1375.78519,0.507015903 L307.398874,1083.49298" id="Stroke-43"></path>
                        <path d="M1390.80468,0.507015903 L322.418363,1083.49298" id="Stroke-45"></path>
                        <path d="M1404.82287,0.507015903 L336.436553,1083.49298" id="Stroke-47"></path>
                        <path d="M1419.84236,0.507015903 L351.456042,1083.49298" id="Stroke-49"></path>
                        <path d="M1433.86055,0.507015903 L365.474231,1083.49298" id="Stroke-51"></path>
                        <path d="M1448.88003,0.507015903 L380.49372,1083.49298" id="Stroke-53"></path>
                        <path d="M1463.89952,0.507015903 L395.513209,1083.49298" id="Stroke-55"></path>
                        <path d="M1477.91771,0.507015903 L409.531399,1083.49298" id="Stroke-57"></path>
                        <path d="M1492.9372,0.507015903 L424.550888,1083.49298" id="Stroke-59"></path>
                        <path d="M1507.95669,0.507015903 L439.570377,1083.49298" id="Stroke-61"></path>
                        <path d="M1521.97488,0.507015903 L453.588566,1083.49298" id="Stroke-63"></path>
                        <path d="M1536.99437,0.507015903 L468.608055,1083.49298" id="Stroke-65"></path>
                        <path d="M1551.01256,0.507015903 L482.626245,1083.49298" id="Stroke-67"></path>
                        <path d="M1566.03205,0.507015903 L497.645734,1083.49298" id="Stroke-69"></path>
                        <path d="M1581.05154,0.507015903 L512.665223,1083.49298" id="Stroke-71"></path>
                        <path d="M1595.06973,0.507015903 L526.683413,1083.49298" id="Stroke-73"></path>
                        <path d="M1610.08922,0.507015903 L541.702902,1083.49298" id="Stroke-75"></path>
                        <path d="M1624.10741,0.507015903 L555.721091,1083.49298" id="Stroke-77"></path>
                        <path d="M1639.12689,0.507015903 L570.74058,1083.49298" id="Stroke-79"></path>
                        <path d="M1654.14638,0.507015903 L585.760069,1083.49298" id="Stroke-81"></path>
                        <path d="M1668.16457,0.507015903 L599.778259,1083.49298" id="Stroke-83"></path>
                        <path d="M1683.18406,0.507015903 L614.797748,1083.49298" id="Stroke-85"></path>
                        <path d="M1697.20225,0.507015903 L628.815938,1083.49298" id="Stroke-87"></path>
                        <path d="M1712.22174,0.507015903 L643.835427,1083.49298" id="Stroke-89"></path>
                        <path d="M1727.24123,0.507015903 L658.854916,1083.49298" id="Stroke-91"></path>
                        <path d="M1741.25942,0.507015903 L672.873105,1083.49298" id="Stroke-93"></path>
                        <path d="M1756.27891,0.507015903 L687.892594,1083.49298" id="Stroke-95"></path>
                        <path d="M1770.2971,0.507015903 L701.910784,1083.49298" id="Stroke-97"></path>
                        <path d="M1785.31659,0.507015903 L716.930273,1083.49298" id="Stroke-99"></path>
                        <path d="M1800.33608,0.507015903 L731.949762,1083.49298" id="Stroke-101"></path>
                        <path d="M1814.35427,0.507015903 L745.967951,1083.49298" id="Stroke-103"></path>
                        <path d="M1829.37375,0.507015903 L760.98744,1083.49298" id="Stroke-105"></path>
                        <path d="M1843.39194,0.507015903 L775.00563,1083.49298" id="Stroke-107"></path>
                        <path d="M1858.41143,0.507015903 L790.025119,1083.49298" id="Stroke-109"></path>
                        <path d="M1873.43092,0.507015903 L805.044608,1083.49298" id="Stroke-111"></path>
                        <path d="M1887.44911,0.507015903 L819.062798,1083.49298" id="Stroke-113"></path>
                        <path d="M1902.4686,0.507015903 L834.082287,1083.49298" id="Stroke-115"></path>
                        <path d="M1916.48679,0.507015903 L848.100476,1083.49298" id="Stroke-117"></path>
                        <path d="M1931.50628,0.507015903 L863.119965,1083.49298" id="Stroke-119"></path>
                        <path d="M1946.52577,0.507015903 L878.139454,1083.49298" id="Stroke-121"></path>
                        <path d="M1960.54396,0.507015903 L892.157644,1083.49298" id="Stroke-123"></path>
                        <path d="M1975.56345,0.507015903 L907.177133,1083.49298" id="Stroke-125"></path>
                        <path d="M1989.58164,0.507015903 L921.195323,1083.49298" id="Stroke-127"></path>
                        <path d="M2004.60113,0.507015903 L936.214812,1083.49298" id="Stroke-129"></path>
                        <path d="M2019.62061,0.507015903 L951.234301,1083.49298" id="Stroke-131"></path>
                        <path d="M2033.6388,0.507015903 L965.25249,1083.49298" id="Stroke-133"></path>
                        <path d="M2048.65829,0.507015903 L980.271979,1083.49298" id="Stroke-135"></path>
                        <path d="M2063.67778,0.507015903 L995.291468,1083.49298" id="Stroke-137"></path>
                        <path d="M2077.69597,0.507015903 L1009.30966,1083.49298" id="Stroke-139"></path>
                        <path d="M2092.71546,0.507015903 L1024.32915,1083.49298" id="Stroke-141"></path>
                        <path d="M2106.73365,0.507015903 L1038.34734,1083.49298" id="Stroke-143"></path>
                        <path d="M2121.75314,0.507015903 L1053.36683,1083.49298" id="Stroke-145"></path>
                        <path d="M2136.77263,0.507015903 L1068.38631,1083.49298" id="Stroke-147"></path>
                        <path d="M2150.79082,0.507015903 L1082.4045,1083.49298" id="Stroke-149"></path>
                        <path d="M2165.81031,0.507015903 L1097.42399,1083.49298" id="Stroke-151"></path>
                        <path d="M2179.8285,0.507015903 L1111.44218,1083.49298" id="Stroke-153"></path>
                        <path d="M2194.84799,0.507015903 L1126.46167,1083.49298" id="Stroke-155"></path>
                        <path d="M2209.86748,0.507015903 L1141.48116,1083.49298" id="Stroke-157"></path>
                        <path d="M2223.88566,0.507015903 L1155.49935,1083.49298" id="Stroke-159"></path>
                        <path d="M2238.90515,0.507015903 L1170.51884,1083.49298" id="Stroke-161"></path>
                        <path d="M2252.92334,0.507015903 L1184.53703,1083.49298" id="Stroke-163"></path>
                        <path d="M2267.94283,0.507015903 L1199.55652,1083.49298" id="Stroke-165"></path>
                        <path d="M2282.96232,0.507015903 L1214.57601,1083.49298" id="Stroke-167"></path>
                        <path d="M2296.98051,0.507015903 L1228.5942,1083.49298" id="Stroke-169"></path>
                        <path d="M2312,0.507015903 L1243.61369,1083.49298" id="Stroke-171"></path>
                    </g>
                </g>
            </g>
        </g>
    </g>
</svg>