
<svg width="1440px" height="1117px" viewBox="0 0 1440 1117" version="1.1" xmlns="http://www.w3.org/2000/svg" xmlns:xlink="http://www.w3.org/1999/xlink">
    <defs>
        <polygon id="path-1" points="0 0 1443 0 1443 1117 0 1117"></polygon>
        <polygon id="path-3" points="0 0.177946128 301.870018 0.177946128 301.870018 301.029736 0 301.029736"></polygon>
        <polygon id="path-5" points="0.818212378 0.993521824 311.825199 0.993521824 311.825199 311.999593 0.818212378 311.999593"></polygon>
        <polygon id="path-7" points="0.242901818 0.197941176 6.02048104 0.197941176 6.02048104 14.8637353 0.242901818 14.8637353"></polygon>
        <polygon id="path-9" points="0.139855462 0.1464 15.2252773 0.1464 15.2252773 5.76376364 0.139855462 5.76376364"></polygon>
        <polygon id="path-11" points="0.242901818 0.197941176 6.02048104 0.197941176 6.02048104 14.8637353 0.242901818 14.8637353"></polygon>
        <polygon id="path-13" points="0.139855462 0.1464 15.2252773 0.1464 15.2252773 5.76376364 0.139855462 5.76376364"></polygon>
    </defs>
    <g id="Desktop" stroke="none" stroke-width="1" fill="none" fill-rule="evenodd">
        <g id="OS-Home" transform="translate(0.000000, -3934.000000)">
            <g id="bg-misc" transform="translate(0.000000, 3934.000000)">
                <mask id="mask-2" fill="white">
                    <use xlink:href="#path-1"></use>
                </mask>
                <use id="Mask" fill="#03468B" xlink:href="#path-1"></use>
                <g id="trama-circulo" mask="url(#mask-2)">
                    <g transform="translate(147.597585, 973.957705) rotate(95.000000) translate(-147.597585, -973.957705) translate(-128.402415, 697.457705)">
                        <path d="M147.504294,32.2824626 L33.7422309,146.043848 C26.8138717,158.980189 20.8815664,172.528695 16.0487082,186.589045 L188.048708,14.5890451 C173.989298,19.4188035 160.440711,25.3531208 147.504294,32.2824626" id="Fill-1" fill="#EC1944"></path>
                        <g id="Group-5" stroke-width="1" fill="none" transform="translate(0.671035, 0.457745)">
                            <mask id="mask-4" fill="white">
                                <use xlink:href="#path-3"></use>
                            </mask>
                            <g id="Clip-4"></g>
                            <path d="M280.24947,0.177742761 L-0.000408108108,279.486053 C0.10672027,286.736086 0.494422973,293.921042 1.1524973,301.029736 L301.870018,1.32778316 C294.737308,0.668874074 287.529099,0.283493603 280.24947,0.177742761" id="Fill-3" fill="#EC1944" mask="url(#mask-4)"></path>
                        </g>
                        <path d="M367.575536,15.4250167 L16.0357008,366.969998 C17.9727308,372.536266 20.0678649,378.028072 22.3455837,383.425017 L384.035701,21.7338621 C378.634661,19.4581896 373.14488,17.3640814 367.575536,15.4250167" id="Fill-6" fill="#EC1944"></path>
                        <path d="M434.911642,49.8449052 L49.9856192,433.803677 C53.1037234,438.245498 56.3403011,442.597668 59.7076085,446.844905 L447.985619,59.5435607 C443.728738,56.1826506 439.363597,52.9521425 434.911642,49.8449052" id="Fill-8" fill="#EC1944"></path>
                        <path d="M488.305763,97.6795405 L99.3881545,485.623384 C103.517591,489.093444 107.738814,492.456687 112.069164,495.679541 L498.388154,110.32985 C495.1562,106.009314 491.783505,101.799665 488.305763,97.6795405" id="Fill-10" fill="#EC1944"></path>
                        <path d="M527.652663,160.095624 L161.425229,526.326062 C166.669097,528.744054 172.00271,531.004994 177.418927,533.095624 L534.425229,176.087413 C532.331556,170.673191 530.072675,165.339535 527.652663,160.095624" id="Fill-12" fill="#EC1944"></path>
                        <g id="Group-16" stroke-width="1" fill="none" transform="translate(239.835375, 239.104570)">
                            <mask id="mask-6" fill="white">
                                <use xlink:href="#path-5"></use>
                            </mask>
                            <g id="Clip-15"></g>
                            <path d="M309.878095,0.993521824 L0.818212378,310.053405 C7.65375635,310.956883 14.569587,311.605274 21.5545251,311.999593 L311.8253,21.7288182 C311.430981,14.7459127 310.783607,7.82703322 309.878095,0.993521824" id="Fill-14" fill="#EC1944" mask="url(#mask-6)"></path>
                        </g>
                        <path d="M531.791887,382.14033 C536.552088,370.917704 540.569693,359.313439 543.823163,347.391823 L348.823163,541.391823 C360.80418,538.158098 372.467235,534.162117 383.746684,529.426328 L531.791887,382.14033 Z" id="Fill-17" fill="#EC1944"></path>
                    </g>
                </g>
                <g id="star-magenta" mask="url(#mask-2)">
                    <g transform="translate(261.000000, 293.000000)" id="Group-11">
                        <g>
                            <path d="M20.5714286,21 L14.4,21 L14.4,32.9019974 C14.4,34.6129828 15.7819493,36 17.4857143,36 C19.1900785,36 20.5714286,34.6129828 20.5714286,32.9019974 L20.5714286,21 Z" id="Fill-1" fill="#EC1944"></path>
                            <g id="Group-5" transform="translate(14.400000, 0.000000)">
                                <mask id="mask-8" fill="white">
                                    <use xlink:href="#path-7"></use>
                                </mask>
                                <g id="Clip-4"></g>
                                <path d="M6.02048104,3.22667647 C6.02048104,1.55344118 4.72728623,0.197852941 3.13197195,0.197852941 C2.33445506,0.197852941 1.6121174,0.536676471 1.08922909,1.08491176 C0.566340779,1.63255882 0.242901818,2.39020588 0.242901818,3.22667647 L0.242901818,14.8637353 L6.02048104,14.8637353 L6.02048104,3.22667647 Z" id="Fill-3" fill="#EC1944" mask="url(#mask-8)"></path>
                            </g>
                            <path d="M2.97408254,15 C1.33095897,15 0,16.3432053 0,18.0001457 C0,18.8289071 0.332667549,19.5784338 0.871519673,20.1211341 C1.40892793,20.6635432 2.15252076,21 2.97408254,21 L14.4,21 L14.4,15 L2.97408254,15 Z" id="Fill-6" fill="#EC1944"></path>
                            <g id="Group-10" transform="translate(20.571429, 15.000000)">
                                <mask id="mask-10" fill="white">
                                    <use xlink:href="#path-9"></use>
                                </mask>
                                <g id="Clip-9"></g>
                                <path d="M12.1103092,5.76376364 C13.8301412,5.76376364 15.2253681,4.50649091 15.2253681,2.95521818 C15.2253681,1.40394545 13.8307462,0.1464 12.1103092,0.1464 L0.139855462,0.1464 L0.139855462,5.76376364 L12.1103092,5.76376364 Z" id="Fill-8" fill="#EC1944" mask="url(#mask-10)"></path>
                            </g>
                        </g>
                    </g>
                </g>
                <g id="star-magenta" mask="url(#mask-2)">
                    <g transform="translate(1204.000000, 54.000000)" id="Group-11">
                        <g>
                            <path d="M20.5714286,21 L14.4,21 L14.4,32.9019974 C14.4,34.6129828 15.7819493,36 17.4857143,36 C19.1900785,36 20.5714286,34.6129828 20.5714286,32.9019974 L20.5714286,21 Z" id="Fill-1" fill="#EC1944"></path>
                            <g id="Group-5" transform="translate(14.400000, 0.000000)">
                                <mask id="mask-12" fill="white">
                                    <use xlink:href="#path-11"></use>
                                </mask>
                                <g id="Clip-4"></g>
                                <path d="M6.02048104,3.22667647 C6.02048104,1.55344118 4.72728623,0.197852941 3.13197195,0.197852941 C2.33445506,0.197852941 1.6121174,0.536676471 1.08922909,1.08491176 C0.566340779,1.63255882 0.242901818,2.39020588 0.242901818,3.22667647 L0.242901818,14.8637353 L6.02048104,14.8637353 L6.02048104,3.22667647 Z" id="Fill-3" fill="#EC1944" mask="url(#mask-12)"></path>
                            </g>
                            <path d="M2.97408254,15 C1.33095897,15 0,16.3432053 0,18.0001457 C0,18.8289071 0.332667549,19.5784338 0.871519673,20.1211341 C1.40892793,20.6635432 2.15252076,21 2.97408254,21 L14.4,21 L14.4,15 L2.97408254,15 Z" id="Fill-6" fill="#EC1944"></path>
                            <g id="Group-10" transform="translate(20.571429, 15.000000)">
                                <mask id="mask-14" fill="white">
                                    <use xlink:href="#path-13"></use>
                                </mask>
                                <g id="Clip-9"></g>
                                <path d="M12.1103092,5.76376364 C13.8301412,5.76376364 15.2253681,4.50649091 15.2253681,2.95521818 C15.2253681,1.40394545 13.8307462,0.1464 12.1103092,0.1464 L0.139855462,0.1464 L0.139855462,5.76376364 L12.1103092,5.76376364 Z" id="Fill-8" fill="#EC1944" mask="url(#mask-14)"></path>
                            </g>
                        </g>
                    </g>
                </g>
            </g>
        </g>
    </g>
</svg>