<?xml version="1.0" encoding="utf-8"?>
<!-- Generator: Adobe Illustrator 24.3.0, SVG Export Plug-In . SVG Version: 6.00 Build 0)  -->
<svg version="1.1" id="Layer_1" xmlns="http://www.w3.org/2000/svg" xmlns:xlink="http://www.w3.org/1999/xlink" x="0px" y="0px"
	 viewBox="0 0 80 48" style="enable-background:new 0 0 80 48;" xml:space="preserve">
<style type="text/css">
	.st0{fill:#161616;}
</style>
<g id="Symbols">
	<g id="Icons" transform="translate(-399.000000, -251.000000)">
		<g id="icon" transform="translate(401.000000, 253.000000)">
			<path class="st0" d="M65.1,45.5H10.9C4,45.5-1.5,39.9-1.5,33c0-6.8,5.5-12.4,12.2-12.5l0.1,0l0.1,0c0.2,0,0.4,0.1,0.7,0.1l3,0.2
				l1-2.9c1.7-5,6.4-8.4,11.6-8.4c0.6,0,1.3,0.1,2.2,0.2l2.8,0.5l1.4-2.5c3.2-5.7,9.1-9.3,15.4-9.3c9.7,0,17.7,8,17.8,17.8l0,0.1
				l0,0.1c0,0.3-0.1,0.6-0.1,0.9l-0.1,2.9l2.7,1c5,1.8,8.3,6.5,8.3,11.7C77.5,39.9,72,45.5,65.1,45.5z M10.6,23.5
				c-5,0.1-9.1,4.4-9.1,9.5c0,5.2,4.2,9.5,9.4,9.5h54.3c5.2,0,9.4-4.3,9.4-9.5c0-4-2.5-7.6-6.3-8.9l-4.8-1.7l0.2-5.1
				c0-0.4,0-0.7,0.1-1C63.5,8.1,56.9,1.5,48.9,1.5c-5.3,0-10.2,3-12.8,7.7l-2.4,4.4l-4.9-0.9c-0.7-0.1-1.2-0.2-1.6-0.2
				c-3.9,0-7.5,2.6-8.8,6.4l-1.7,5l-5.3-0.4C11.1,23.6,10.9,23.5,10.6,23.5z"/>
		</g>
	</g>
</g>
</svg>
