<svg id="Layer_1" data-name="Layer 1" xmlns="http://www.w3.org/2000/svg" viewBox="0 0 199.79 199.79"><defs><style>.cls-1{fill:#fff;}.cls-2{fill:#f7b749;}.cls-3{fill:#ed362f;}.cls-4{fill:#43b85c;}.cls-5{fill:#2cb4e2;}</style></defs><path d="M13.56,1H198.76a0,0,0,0,1,0,0V186.23a12.53,12.53,0,0,1-12.53,12.53H13.56A12.53,12.53,0,0,1,1,186.23V13.56A12.53,12.53,0,0,1,13.56,1Z"/><path class="cls-1" d="M175,283c-2.61,0-4.54-.63-5.78-1.87s-1.87-3.18-1.87-5.78v-7.9c0-2.63.62-4.56,1.88-5.79s3.17-1.85,5.77-1.82h4.1q3.93,0,5.79,1.86t1.86,5.79v7.86q0,3.9-1.86,5.78c-1.24,1.24-3.17,1.87-5.79,1.87Zm0-2.87h4.1a7.65,7.65,0,0,0,2.87-.44,2.7,2.7,0,0,0,1.48-1.47,7.71,7.71,0,0,0,.43-2.87v-7.86a7.56,7.56,0,0,0-.43-2.85,2.74,2.74,0,0,0-1.48-1.49,7.45,7.45,0,0,0-2.87-.44H175a7.41,7.41,0,0,0-2.85.41,2.64,2.64,0,0,0-1.49,1.46,7.48,7.48,0,0,0-.44,2.87v7.9a7.71,7.71,0,0,0,.43,2.87,2.67,2.67,0,0,0,1.48,1.47A7.61,7.61,0,0,0,175,280.1Z" transform="translate(-150.11 -150.11)"/><path class="cls-1" d="M194.12,289.8a1.27,1.27,0,0,1-1.44-1.44V267.08a1.44,1.44,0,0,1,2.87,0v.43a5.87,5.87,0,0,1,2.28-1.39,9.13,9.13,0,0,1,3-.47h1.3c2.28,0,4,.54,5.06,1.64a6.89,6.89,0,0,1,1.64,5v3.93a5.86,5.86,0,0,1-6.7,6.7h-6.63v5.39A1.27,1.27,0,0,1,194.12,289.8Zm1.43-9.7h6.63a3.11,3.11,0,0,0,3.83-3.83v-3.93a3.1,3.1,0,0,0-3.83-3.82h-1.3a11.92,11.92,0,0,0-3.69.51c-1,.34-1.58.88-1.64,1.62Z" transform="translate(-150.11 -150.11)"/><path class="cls-1" d="M216.87,275.49v.82a4.23,4.23,0,0,0,.8,3,4.32,4.32,0,0,0,3,.8h2.81a7.41,7.41,0,0,0,2.57-.33,1.79,1.79,0,0,0,1.12-1.14,2.21,2.21,0,0,1,.52-1,1.34,1.34,0,0,1,1-.34,1.51,1.51,0,0,1,1.1.37,1.17,1.17,0,0,1,.23,1.1,4.49,4.49,0,0,1-2,3.16,8.48,8.48,0,0,1-4.54,1h-2.81a6.9,6.9,0,0,1-5-1.64,6.82,6.82,0,0,1-1.65-5v-4q0-3.46,1.65-5.09a6.81,6.81,0,0,1,5-1.6h2.81c2.27,0,4,.54,5.05,1.63s1.64,2.77,1.64,5.06v1.71a1.27,1.27,0,0,1-1.43,1.44Zm3.82-7a4.14,4.14,0,0,0-3,.77,4.36,4.36,0,0,0-.8,3v.28h10.45v-.28a3.1,3.1,0,0,0-3.82-3.82Z" transform="translate(-150.11 -150.11)"/><path class="cls-1" d="M237.57,283a1.27,1.27,0,0,1-1.44-1.44V267.08a1.44,1.44,0,0,1,2.87,0v.57a6.82,6.82,0,0,1,5.33-2h1c2.28,0,4,.54,5.06,1.64s1.63,2.78,1.63,5v9.19a1.43,1.43,0,1,1-2.86,0v-9.19a4.26,4.26,0,0,0-.82-3,4.31,4.31,0,0,0-3-.79h-1a12,12,0,0,0-3.57.47c-1,.31-1.6.8-1.76,1.47v11.07A1.27,1.27,0,0,1,237.57,283Z" transform="translate(-150.11 -150.11)"/><path class="cls-1" d="M259.84,283a1.25,1.25,0,0,1-1.43-1.44V261.28a1.47,1.47,0,0,1,.35-1.1,1.44,1.44,0,0,1,2.52,1.1v20.25a1.52,1.52,0,0,1-.35,1.09A1.47,1.47,0,0,1,259.84,283Z" transform="translate(-150.11 -150.11)"/><path class="cls-1" d="M269.47,283a1.27,1.27,0,0,1-1.43-1.44V267.08a1.44,1.44,0,0,1,2.87,0v.57a6.8,6.8,0,0,1,5.33-2h.95c2.28,0,4,.54,5.06,1.64a6.89,6.89,0,0,1,1.64,5v9.19a1.44,1.44,0,1,1-2.87,0v-9.19a4.26,4.26,0,0,0-.81-3,4.34,4.34,0,0,0-3-.79h-.95a11.88,11.88,0,0,0-3.57.47c-1,.31-1.6.8-1.76,1.47v11.07A1.27,1.27,0,0,1,269.47,283Z" transform="translate(-150.11 -150.11)"/><path class="cls-1" d="M292.4,283a1.27,1.27,0,0,1-1.44-1.44v-13H289.7a1.44,1.44,0,1,1,0-2.87H291v-.14a5.76,5.76,0,0,1,6.59-6.59c.82,0,1.23.48,1.23,1.43s-.41,1.44-1.23,1.44a4.17,4.17,0,0,0-2.93.77,4.1,4.1,0,0,0-.79,2.95v.14h3.52a1.44,1.44,0,0,1,0,2.87h-3.52v13A1.27,1.27,0,0,1,292.4,283Z" transform="translate(-150.11 -150.11)"/><path class="cls-1" d="M304.59,283a1.27,1.27,0,0,1-1.43-1.44V267.08a1.43,1.43,0,1,1,2.86,0v1.33a6.43,6.43,0,0,1,2.58-2.06,8.58,8.58,0,0,1,3.57-.7,1.44,1.44,0,1,1,0,2.87,7.8,7.8,0,0,0-4.51,1.09A3.62,3.62,0,0,0,306,272.5v9A1.27,1.27,0,0,1,304.59,283Z" transform="translate(-150.11 -150.11)"/><path class="cls-1" d="M321.7,283a5.69,5.69,0,1,1,0-11.34h7.23a3.2,3.2,0,0,0-.94-2.45,4.75,4.75,0,0,0-2.87-.66h-2a10.09,10.09,0,0,0-2.55.23,1.83,1.83,0,0,0-1.18.83,2.72,2.72,0,0,1-.63,1,1.48,1.48,0,0,1-1,.27,1.55,1.55,0,0,1-1.13-.4,1.05,1.05,0,0,1-.24-1.07,4.3,4.3,0,0,1,2.15-2.82,9.48,9.48,0,0,1,4.55-.9h2c2.28,0,4,.54,5.05,1.64s1.64,2.78,1.64,5v9.19a1.44,1.44,0,1,1-2.87,0v-.77a6.5,6.5,0,0,1-5.32,2.21Zm0-2.87h1.92a11.91,11.91,0,0,0,2.37-.23,4.59,4.59,0,0,0,1.9-.85,2.92,2.92,0,0,0,1.05-1.76V274.5H321.7a3.2,3.2,0,0,0-2.24.56,2.84,2.84,0,0,0,2.24,5Z" transform="translate(-150.11 -150.11)"/><path class="cls-1" d="M1,149.33H198.76a0,0,0,0,1,0,0v36.9a12.53,12.53,0,0,1-12.53,12.53H13.56A12.53,12.53,0,0,1,1,186.23v-36.9a0,0,0,0,1,0,0Z"/><polygon class="cls-2" points="99.89 30.87 99.89 37.69 146.79 37.69 99.89 84.58 104.72 89.4 163.25 30.87 99.89 30.87"/><polygon class="cls-3" points="170.07 24.05 176.89 17.23 99.89 17.23 99.89 24.05 170.07 24.05"/><polygon class="cls-4" points="174.89 28.87 174.89 99.05 181.71 99.05 181.71 22.05 174.89 28.87"/><polygon class="cls-5" points="168.07 99.05 168.07 35.69 109.54 94.22 114.36 99.05 161.25 52.15 161.25 99.05 168.07 99.05"/><path d="M336.34,349.89H163.66a13.57,13.57,0,0,1-13.55-13.55V163.66a13.57,13.57,0,0,1,13.55-13.55H349.89V336.34A13.57,13.57,0,0,1,336.34,349.89ZM163.66,152.16a11.51,11.51,0,0,0-11.5,11.5V336.34a11.51,11.51,0,0,0,11.5,11.5H336.34a11.51,11.51,0,0,0,11.5-11.5V152.16Z" transform="translate(-150.11 -150.11)"/><path d="M216.69,333.15h12.44v4.71h-18.3V309.42h5.86Z" transform="translate(-150.11 -150.11)"/><path d="M238.52,337.86h-5.86V309.42h5.86Z" transform="translate(-150.11 -150.11)"/><path d="M254.26,330.81l6.45-21.39h6.52l-9.9,28.44h-6.12l-9.86-28.44h6.5Z" transform="translate(-150.11 -150.11)"/><path d="M287.21,325.53H276v7.62h13.21v4.71H270.1V309.42h19v4.75H276v6.77h11.25Z" transform="translate(-150.11 -150.11)"/></svg>