<?xml version="1.0" encoding="utf-8"?>
<!-- Generator: Adobe Illustrator 24.3.0, SVG Export Plug-In . SVG Version: 6.00 Build 0)  -->
<svg version="1.1" id="Layer_1" xmlns="http://www.w3.org/2000/svg" xmlns:xlink="http://www.w3.org/1999/xlink" x="0px" y="0px"
	 viewBox="0 0 19 16" style="enable-background:new 0 0 19 16;" xml:space="preserve">
<style type="text/css">
	.st0{fill:#1DA1F2;}
</style>
<g id="Desktop">
	<g id="OS-Staff---op-2" transform="translate(-1112.000000, -1068.000000)">
		<g id="social" transform="translate(1079.000000, 1063.000000)">
			<path id="Path" class="st0" d="M52,6.9c-0.7,0.3-1.5,0.5-2.2,0.6c0.8-0.5,1.4-1.3,1.7-2.2c-0.8,0.5-1.6,0.8-2.5,1
				C48.3,5.5,47.3,5,46.2,5c-2.2,0-3.9,1.8-3.9,4c0,0.3,0,0.6,0.1,0.9c-3.2-0.2-6.1-1.8-8-4.2c-0.3,0.6-0.5,1.3-0.5,2
				c0,1.4,0.7,2.6,1.7,3.4c-0.6,0-1.2-0.2-1.8-0.5l0,0c0,2,1.4,3.6,3.1,4c-0.3,0.1-0.7,0.1-1,0.1c-0.2,0-0.5,0-0.7-0.1
				c0.5,1.6,1.9,2.8,3.6,2.8c-1.3,1.1-3,1.7-4.8,1.7c-0.3,0-0.6,0-0.9-0.1c1.7,1.2,3.8,1.8,6,1.8c7.2,0,11.1-6.2,11.1-11.5
				c0-0.2,0-0.4,0-0.5C50.8,8.4,51.5,7.7,52,6.9z"/>
		</g>
	</g>
</g>
</svg>
