<?xml version="1.0" encoding="utf-8"?>
<!-- Generator: Adobe Illustrator 24.3.0, SVG Export Plug-In . SVG Version: 6.00 Build 0)  -->
<svg version="1.1" id="Layer_1" xmlns="http://www.w3.org/2000/svg" xmlns:xlink="http://www.w3.org/1999/xlink" x="0px" y="0px"
	 viewBox="0 0 21 20" style="enable-background:new 0 0 21 20;" xml:space="preserve">
<style type="text/css">
	.st0{fill:#2867B2;}
</style>
<g id="Desktop">
	<g id="OS-Staff---op-2" transform="translate(-1153.000000, -1063.000000)">
		<g id="social" transform="translate(1079.000000, 1063.000000)">
			<g id="Group-3" transform="translate(74.000000, 0.000000)">
				<rect id="Rectangle" y="6" class="st0" width="4" height="14"/>
				<path id="Path" class="st0" d="M17.6,6.2h-0.1c-0.1,0-0.1,0-0.2,0C17,6,16.8,6,16.4,6c-2.7,0-4.3,1.9-4.9,2.7V6H7v14h4.6v-7.6
					c0,0,3.4-4.8,4.9-1.3c0,3.1,0,8.9,0,8.9H21v-9.4C21,8.4,19.6,6.7,17.6,6.2z"/>
				<circle id="Oval" class="st0" cx="2" cy="2" r="2"/>
			</g>
		</g>
	</g>
</g>
</svg>
