
<svg width="58px" height="63px" viewBox="0 0 58 63" version="1.1" xmlns="http://www.w3.org/2000/svg" xmlns:xlink="http://www.w3.org/1999/xlink">
    <g id="Symbols" stroke="none" stroke-width="1" fill="none" fill-rule="evenodd">
        <g id="Icons" transform="translate(-184.000000, -129.000000)">
            <g id="icon" transform="translate(184.000000, 129.000000)">
                <path d="M0.5004,15.1635 L0.5004,46.9845 L28.7434,61.5805 L57.0394,46.9845 L57.0394,15.1535 L28.2844,0.5625 L0.5004,15.1635 Z M3.3264,16.0595 L28.3004,2.9345 L54.2194,16.0865 L28.8004,28.8395 L3.3264,16.0595 Z M2.6084,45.7015 L2.6084,18.0565 L27.6904,30.6415 L27.6904,58.6635 L2.6084,45.7015 Z M29.7984,30.6975 L54.9304,18.0885 L54.9304,45.7005 L29.7984,58.6655 L29.7984,30.6975 Z" id="Fill-1" fill="#133E68"></path>
                <path d="M3.3262,16.06 L28.8002,28.84 L54.2202,16.086 L28.3012,2.934 L3.3262,16.06 Z M2.6082,45.702 L27.6902,58.664 L27.6902,30.642 L2.6082,18.057 L2.6082,45.702 Z M29.7982,30.698 L29.7982,58.665 L54.9302,45.701 L54.9302,18.088 L29.7982,30.698 Z M0.5002,46.985 L0.5002,15.164 L28.2842,0.563 L57.0392,15.154 L57.0392,46.985 L28.7432,61.581 L0.5002,46.985 Z" id="Stroke-2" stroke="#133E68"></path>
            </g>
        </g>
    </g>
</svg>