<?xml version="1.0" encoding="utf-8"?>
<!-- Generator: Adobe Illustrator 24.3.0, SVG Export Plug-In . SVG Version: 6.00 Build 0)  -->
<svg version="1.1" id="Layer_1" xmlns="http://www.w3.org/2000/svg" xmlns:xlink="http://www.w3.org/1999/xlink" x="0px" y="0px"
	 viewBox="0 0 73 65" style="enable-background:new 0 0 73 65;" xml:space="preserve">
<style type="text/css">
	.st0{fill-rule:evenodd;clip-rule:evenodd;fill:#161616;}
</style>
<g id="Symbols">
	<g id="Icons" transform="translate(-17.000000, 0.000000)">
		<g id="icon" transform="translate(17.000000, 0.000000)">
			<g id="Clip-2">
			</g>
			<path id="Fill-1" class="st0" d="M21.6,64.6c-3,0-5.5-2.5-5.5-5.5s2.5-5.5,5.5-5.5c0.1,0,0.3,0,0.4,0l0.8,0.1L26.7,37l-0.4-0.3
				C25.4,36,24.7,35,24.2,34l-0.4-0.9l-13.2,7.8l0.2,0.7c0.1,0.5,0.2,1,0.2,1.5c0,3-2.5,5.5-5.5,5.5C2.5,48.5,0,46,0,43
				s2.5-5.5,5.5-5.5c1.4,0,2.7,0.5,3.7,1.4l0.5,0.4L23.6,31v-0.5c0.1-1.7,0.8-3.3,1.9-4.6l0.5-0.6L11,6.9L10.5,7c-0.1,0-0.2,0-0.3,0
				C8.3,7,6.8,5.4,6.8,3.5S8.3,0,10.3,0c1.9,0,3.5,1.6,3.5,3.5c0,0.8-0.2,1.5-0.7,2.1l-0.4,0.5l14.8,18.5l0.6-0.2
				c0.9-0.4,1.8-0.5,2.7-0.5c0.8,0,1.6,0.1,2.4,0.4l0.5,0.2l15.2-11.7l-0.1-0.6c-0.1-0.4-0.2-0.9-0.2-1.3c0-3,2.5-5.5,5.5-5.5
				s5.5,2.5,5.5,5.5c0,0.8-0.2,1.6-0.5,2.3l-0.3,0.6l9.3,8.5l0.5-0.2c0.3-0.1,0.7-0.2,1.1-0.2c1.9,0,3.5,1.6,3.5,3.5
				s-1.6,3.5-3.5,3.5s-3.5-1.6-3.5-3.5c0-0.5,0.1-1,0.3-1.5l0.3-0.6L57.4,15l-0.6,0.4c-0.8,0.5-1.8,0.8-2.9,0.8
				c-1.4,0-2.8-0.5-3.8-1.5l-0.5-0.5L35.2,25.3l0.7,0.7c1.2,1.3,2,3,2.1,4.7v0.6l11.3,4.8l0.4-0.3c0.6-0.5,1.4-0.8,2.2-0.8
				c1.9,0,3.5,1.6,3.5,3.5S53.8,42,51.9,42s-3.5-1.6-3.5-3.5c0-0.1,0-0.1,0-0.2l0.1-0.6l-10.8-4.6l-0.3,0.8
				c-1.1,2.7-3.8,4.4-6.7,4.4c-0.6,0-1.1-0.1-1.6-0.2l-0.9-0.2l-3.8,16.5l0.5,0.3c1.4,1,2.2,2.6,2.2,4.4
				C27.1,62.2,24.6,64.6,21.6,64.6"/>
		</g>
	</g>
</g>
</svg>
