<?xml version="1.0" encoding="utf-8"?>
<!-- Generator: Adobe Illustrator 24.3.0, SVG Export Plug-In . SVG Version: 6.00 Build 0)  -->
<svg version="1.1" id="Layer_1" xmlns="http://www.w3.org/2000/svg" xmlns:xlink="http://www.w3.org/1999/xlink" x="0px" y="0px"
	 viewBox="0 0 64 58" style="enable-background:new 0 0 64 58;" xml:space="preserve">
<style type="text/css">
	.st0{fill-rule:evenodd;clip-rule:evenodd;fill:#161616;}
</style>
<g id="Symbols">
	<g id="Icons" transform="translate(-807.000000, -23.000000)">
		<g id="icon" transform="translate(807.000000, 23.000000)">
			<path id="Fill-1" class="st0" d="M63.6,25.4c-0.4-0.4-1.2-0.4-1.6,0l-1.4,1.4C59.6,11.7,47.1,0,32,0C20.4,0,10.2,6.9,5.7,17.3h0
				c-0.1,0.2-0.1,0.4-0.1,0.7c0,0.9,0.7,1.6,1.6,1.6c0.7,0,1.4-0.5,1.6-1.1h0C12.8,9.3,21.9,3.3,32,3.3c13.2,0,24.2,10.2,25.3,23.3
				l-1.2-1.2c-0.4-0.4-1.2-0.4-1.6,0c-0.4,0.4-0.4,1.2,0,1.6l1.8,1.8l1.9,1.9c0.2,0.2,0.5,0.3,0.8,0.3s0.6-0.1,0.8-0.3l2.2-2.2
				l1.6-1.6C64.1,26.5,64.1,25.8,63.6,25.4"/>
			<path id="Fill-3" class="st0" d="M57.2,36.6c-0.6,0-1.2,0.3-1.4,0.9l0,0c0,0,0,0,0,0c-0.1,0.1-0.1,0.2-0.1,0.4
				C51.9,47.6,42.6,54.1,32,54.1c-13.7,0-25-11-25.4-24.7l1.3,1.3c0.2,0.2,0.5,0.3,0.8,0.3c0.3,0,0.6-0.1,0.8-0.3
				c0.4-0.4,0.4-1.2,0-1.6l-3-3l-0.8-0.8c-0.4-0.4-1.2-0.4-1.6,0l-0.8,0.8l-3,3c-0.4,0.4-0.4,1.2,0,1.6c0.2,0.2,0.5,0.3,0.8,0.3
				s0.6-0.1,0.8-0.3l1.4-1.4c0.4,15.5,13.1,28,28.7,28c11.8,0,22.5-7.5,26.7-18.3c0.1-0.1,0.1-0.3,0.2-0.4c0,0,0,0,0,0h0
				c0-0.1,0-0.2,0-0.4C58.9,37.3,58.2,36.6,57.2,36.6"/>
		</g>
	</g>
</g>
</svg>
