<?xml version="1.0" encoding="utf-8"?>
<!-- Generator: Adobe Illustrator 24.3.0, SVG Export Plug-In . SVG Version: 6.00 Build 0)  -->
<svg version="1.1" id="Layer_1" xmlns="http://www.w3.org/2000/svg" xmlns:xlink="http://www.w3.org/1999/xlink" x="0px" y="0px"
	 viewBox="0 0 58 63" style="enable-background:new 0 0 58 63;" xml:space="preserve">
<style type="text/css">
	.st0{fill-rule:evenodd;clip-rule:evenodd;fill:#161616;}
	.st1{fill:#161616;}
</style>
<g id="Symbols">
	<g id="Icons" transform="translate(-184.000000, -129.000000)">
		<g id="icon" transform="translate(184.000000, 129.000000)">
			<path id="Fill-1" class="st0" d="M0.5,15.2V47l28.2,14.6L57,47V15.2L28.3,0.6L0.5,15.2z M3.3,16.1l25-13.1l25.9,13.2L28.8,28.8
				L3.3,16.1z M2.6,45.7V18.1l25.1,12.6v28L2.6,45.7z M29.8,30.7l25.1-12.6v27.6l-25.1,13V30.7z"/>
			<path class="st1" d="M28.7,62.1L0,47.3V14.9L28.3,0l29.3,14.8v32.4L28.7,62.1z M1,46.7L28.7,61l27.8-14.3V15.5L28.3,1.1L1,15.5
				V46.7z M29.3,59.5V30.4l26.1-13.1V46L29.3,59.5z M30.3,31v26.8l24.1-12.4V18.9L30.3,31z M28.2,59.5L2.1,46V17.2l26.1,13.1V59.5z
				 M3.1,45.4l24.1,12.4V31L3.1,18.9V45.4z M28.8,29.4L2.2,16.1L28.3,2.4l27,13.7L28.8,29.4z M4.4,16l24.4,12.2l24.3-12.2L28.3,3.5
				L4.4,16z"/>
		</g>
	</g>
</g>
</svg>
