
<svg width="80px" height="48px" viewBox="0 0 80 48" version="1.1" xmlns="http://www.w3.org/2000/svg" xmlns:xlink="http://www.w3.org/1999/xlink">
    <g id="Symbols" stroke="none" stroke-width="1" fill="none" fill-rule="evenodd">
        <g id="Icons" transform="translate(-399.000000, -251.000000)" stroke="#133E68" stroke-width="3">
            <g id="icon" transform="translate(401.000000, 253.000000)">
                <path d="M48.857381,0 C57.774178,0 65.0376175,7.29393102 65.1420635,16.2956709 C65.1009518,16.6289019 65.0687291,16.9621328 65.0576178,17.3066216 L64.919838,21.3447958 L68.6954488,22.6777198 C73.0632904,24.2177873 76,28.3707911 76,33 C76,39.0702078 71.1332622,44 65.1420635,44 L10.8579365,44 C4.87229345,44 0,39.0702078 0,33 C0,26.9950875 4.78229214,22.0968171 10.6868229,22 C10.9423822,22.0382765 11.2068305,22.0697984 11.4723899,22.0855593 L15.5968947,22.3602497 L16.9535812,18.412138 C18.4802702,13.9765633 22.5736634,11 27.1437302,11 C27.6737379,11 28.2570798,11.0652953 29.0415357,11.2037662 L32.8427024,11.897247 L34.7338411,8.48725821 C37.6394392,3.25463105 43.047296,0 48.857381,0" id="Stroke-1"></path>
            </g>
        </g>
    </g>
</svg>