<svg width="64px" height="58px" viewBox="0 0 64 58" version="1.1" xmlns="http://www.w3.org/2000/svg" xmlns:xlink="http://www.w3.org/1999/xlink">
    <g id="Symbols" stroke="none" stroke-width="1" fill="none" fill-rule="evenodd">
        <g id="Icons" transform="translate(-807.000000, -23.000000)" fill="#133E68">
            <g id="icon" transform="translate(807.000000, 23.000000)">
                <path d="M63.6135,25.3748 C63.1705,24.9318 62.4525,24.9318 62.0095,25.3748 L60.5955,26.7888 C59.6065,11.7318 47.1225,-0.0002 31.9725,-0.0002 C20.4395,-0.0002 10.1735,6.8548 5.6565,17.2958 L5.6575,17.2958 C5.5675,17.4988 5.5175,17.7228 5.5175,17.9588 C5.5175,18.8688 6.2545,19.6048 7.1635,19.6048 C7.8955,19.6048 8.5155,19.1268 8.7295,18.4668 L8.7305,18.4668 C12.7735,9.3078 21.9025,3.2598 31.9725,3.2598 C45.1955,3.2598 56.1965,13.4628 57.2785,26.5918 L56.0605,25.3748 C55.6185,24.9318 54.9005,24.9318 54.4575,25.3748 C54.0145,25.8168 54.0145,26.5348 54.4575,26.9768 L56.2965,28.8148 L58.2335,30.7528 C58.4555,30.9738 58.7455,31.0838 59.0355,31.0838 C59.3255,31.0838 59.6155,30.9738 59.8375,30.7528 L62.0355,28.5538 L63.6135,26.9768 C64.0555,26.5348 64.0555,25.8168 63.6135,25.3748" id="Fill-1"></path>
                <path d="M57.2493,36.6038 C56.6253,36.6038 56.0823,36.9518 55.8033,37.4638 L55.8003,37.4618 C55.7963,37.4718 55.7923,37.4818 55.7893,37.4918 C55.7293,37.6058 55.6833,37.7278 55.6513,37.8548 C51.9043,47.5648 42.5633,54.1258 31.9733,54.1258 C18.2533,54.1258 6.9693,43.0978 6.5703,29.4378 L7.8843,30.7528 C8.1053,30.9738 8.3953,31.0838 8.6863,31.0838 C8.9763,31.0838 9.2663,30.9738 9.4873,30.7528 C9.9303,30.3108 9.9303,29.5928 9.4873,29.1508 L6.5123,26.1758 L5.7113,25.3748 C5.2693,24.9318 4.5513,24.9318 4.1073,25.3748 L3.3073,26.1758 L0.3323,29.1508 C-0.1107,29.5928 -0.1107,30.3108 0.3323,30.7528 C0.5533,30.9738 0.8433,31.0838 1.1333,31.0838 C1.4233,31.0838 1.7133,30.9738 1.9353,30.7528 L3.3003,29.3878 C3.6733,44.8688 16.4323,57.3858 31.9733,57.3858 C43.8233,57.3858 54.4653,49.8688 58.6953,39.0368 C58.7643,38.9108 58.8163,38.7748 58.8513,38.6318 C58.8523,38.6298 58.8523,38.6278 58.8533,38.6248 L58.8523,38.6248 C58.8803,38.5048 58.8953,38.3788 58.8953,38.2498 C58.8953,37.3408 58.1583,36.6038 57.2493,36.6038" id="Fill-3"></path>
            </g>
        </g>
    </g>
</svg>