<svg id="Layer_1" data-name="Layer 1" xmlns="http://www.w3.org/2000/svg" viewBox="0 0 73 65"><defs><style>.cls-1{fill:#161616;fill-rule:evenodd;}</style></defs><g id="Symbols"><g id="Icons"><g id="icon"><path id="Fill-1" class="cls-1" d="M21.6,64.6a5.5,5.5,0,0,1,0-11H22l.8.1L26.7,37l-.4-.3A7.89,7.89,0,0,1,24.2,34l-.4-.9L10.6,40.9l.2.7a7.72,7.72,0,0,1,.2,1.5,5.55,5.55,0,0,1-5.5,5.5A5.7,5.7,0,0,1,0,43a5.55,5.55,0,0,1,5.5-5.5,5.49,5.49,0,0,1,3.7,1.4l.5.4L23.6,31v-.5a7.87,7.87,0,0,1,1.9-4.6l.5-.6L11,6.9l-.5.1h-.3A3.46,3.46,0,0,1,6.8,3.5,3.48,3.48,0,0,1,10.3,0a3.54,3.54,0,0,1,3.5,3.5,3.14,3.14,0,0,1-.7,2.1l-.4.5L27.5,24.6l.6-.2a6.46,6.46,0,0,1,2.7-.5,6.72,6.72,0,0,1,2.4.4l.5.2L48.9,12.8l-.1-.6a5.85,5.85,0,0,1-.2-1.3,5.5,5.5,0,1,1,11,0,5.93,5.93,0,0,1-.5,2.3l-.3.6,9.3,8.5.5-.2a3.59,3.59,0,0,1,1.1-.2,3.5,3.5,0,1,1-3.5,3.5,4,4,0,0,1,.3-1.5l.3-.6L57.4,15l-.6.4a5.47,5.47,0,0,1-2.9.8,5.37,5.37,0,0,1-3.8-1.5l-.5-.5L35.2,25.3l.7.7A7.78,7.78,0,0,1,38,30.7v.6l11.3,4.8.4-.3a3.49,3.49,0,0,1,2.2-.8,3.5,3.5,0,1,1-3.5,3.5v-.2l.1-.6L37.7,33.1l-.3.8a7.21,7.21,0,0,1-6.7,4.4,7.77,7.77,0,0,1-1.6-.2l-.9-.2L24.4,54.4l.5.3a5.31,5.31,0,0,1,2.2,4.4,5.48,5.48,0,0,1-5.5,5.5"/></g></g></g></svg>