<?xml version="1.0" encoding="utf-8"?>
<!-- Generator: Adobe Illustrator 24.3.0, SVG Export Plug-In . SVG Version: 6.00 Build 0)  -->
<svg version="1.1" id="Layer_1" xmlns="http://www.w3.org/2000/svg" xmlns:xlink="http://www.w3.org/1999/xlink" x="0px" y="0px"
	 viewBox="0 0 63 63" style="enable-background:new 0 0 63 63;" xml:space="preserve">
<style type="text/css">
	.st0{fill-rule:evenodd;clip-rule:evenodd;fill:#161616;}
	.st1{fill:#161616;}
</style>
<g id="Symbols">
	<g id="Icons" transform="translate(-633.000000, -129.000000)">
		<g id="icon" transform="translate(633.000000, 129.000000)">
			<path id="Fill-1" class="st0" d="M20,52.4c-0.4,0-0.8-0.2-1.1-0.5c-0.3-0.3-0.4-0.7-0.4-1.1c0-0.4,0.2-0.8,0.5-1.1
				c0.3-0.3,0.7-0.4,1.1-0.4l0.3,0l1.6-1.5v-7.7l-6-2.7v-9.5l6-4v-7.5l-1.3-1l-0.2,0c-0.1,0-0.2,0-0.3,0c-0.3,0-0.7-0.1-0.9-0.3
				c-0.7-0.5-0.8-1.5-0.3-2.2c0.3-0.4,0.8-0.6,1.2-0.6c0.3,0,0.7,0.1,1,0.3c0.4,0.3,0.6,0.7,0.6,1.1l0,0.2l2,1.5v9.2l-6,4v7.4l6,2.7
				v9.6l-2.1,2l0,0.2c0,0.5-0.2,0.9-0.5,1.2C20.8,52.3,20.5,52.4,20,52.4"/>
			<path class="st1" d="M20,52.9c-0.6,0-1.1-0.2-1.5-0.6c-0.4-0.4-0.6-0.9-0.6-1.5c0-0.6,0.2-1.1,0.6-1.4c0.4-0.4,0.9-0.6,1.4-0.6
				l0.2,0l1.3-1.2v-7.2l-6-2.7V27.6l6-4v-6.9L20.6,16c-0.6,0.1-1.2,0-1.6-0.4c-0.4-0.3-0.7-0.8-0.8-1.4c-0.1-0.5,0.1-1.1,0.4-1.5
				c0.7-0.9,2-1.1,2.9-0.4c0.5,0.4,0.7,0.9,0.8,1.5l2,1.5v9.8l-6,4v6.8l6,2.7v10.1l-2.1,2c0,0.6-0.2,1.2-0.6,1.6
				C21.1,52.7,20.6,52.9,20,52.9z M20,49.8c-0.2,0-0.5,0.1-0.7,0.3c-0.2,0.2-0.3,0.5-0.3,0.7c0,0.3,0.1,0.6,0.3,0.8
				c0.4,0.4,1.1,0.4,1.5,0c0.2-0.2,0.3-0.5,0.3-0.8l0-0.4l2.1-2.1v-9l-6-2.7v-8l6-4v-8.7l-1.9-1.5l0-0.4c0-0.3-0.2-0.6-0.4-0.8
				c-0.5-0.4-1.1-0.3-1.5,0.2c-0.2,0.2-0.2,0.5-0.2,0.8c0,0.3,0.2,0.5,0.4,0.7c0.2,0.2,0.5,0.2,0.8,0.2l0.4-0.1l1.6,1.3v8l-6,4v8.9
				l6,2.7V48l-1.9,1.8L20,49.8z"/>
			<path id="Fill-5" class="st0" d="M10.7,46v6.5l13.8,8l6.1-3.5V36.6l0-5.1l0-4V6.1l-6.1-3.5l-13.8,8v7.6l3,1.6l0.2-0.1
				c0.2-0.1,0.3-0.1,0.5-0.1c0.3,0,0.5,0.1,0.7,0.2c0.8,0.4,1,1.4,0.6,2.1c-0.3,0.5-0.8,0.8-1.4,0.8c-0.3,0-0.5-0.1-0.8-0.2
				c-0.4-0.2-0.7-0.6-0.8-1l-0.1-0.2l-3-1.6l-7.6,4.4v7.5h3l0.1-0.2c0.3-0.3,0.7-0.5,1.2-0.5c0.9,0,1.6,0.7,1.6,1.6
				c0,0.9-0.7,1.6-1.6,1.6c-0.4,0-0.9-0.2-1.2-0.5l-0.1-0.2h-3V40l7.6,4.4l2.9-1.4l0.1-0.2c0.1-0.4,0.4-0.8,0.8-1
				c0.2-0.1,0.4-0.2,0.7-0.2c0.6,0,1.2,0.3,1.4,0.9c0.2,0.4,0.2,0.8,0.1,1.2c-0.1,0.4-0.4,0.7-0.8,0.9c-0.2,0.1-0.4,0.1-0.7,0.1
				c-0.2,0-0.4,0-0.6-0.1l-0.2-0.1L10.7,46z M32.4,6.1v21.3l0,4l0,5.1v20.3l6.1,3.5l13.8-8V46l-2.8-1.4l-0.2,0.1
				c-0.2,0.1-0.4,0.1-0.6,0.1c-0.2,0-0.5,0-0.7-0.2c-0.8-0.4-1.1-1.3-0.7-2.1c0.3-0.5,0.8-0.9,1.4-0.9c0.2,0,0.5,0.1,0.7,0.2
				c0.4,0.2,0.7,0.5,0.8,1l0.1,0.2l2.9,1.4l7.6-4.4v-6.7h-3l-0.1,0.2c-0.3,0.3-0.7,0.5-1.2,0.5c-0.9,0-1.6-0.7-1.6-1.6
				c0-0.9,0.7-1.6,1.6-1.6c0.4,0,0.9,0.2,1.2,0.5l0.1,0.2h3v-7.5l-7.6-4.4l-3,1.6l0,0.2c-0.1,0.4-0.4,0.8-0.8,1
				c-0.2,0.1-0.5,0.2-0.8,0.2c-0.6,0-1.1-0.3-1.4-0.8c-0.4-0.8-0.1-1.7,0.6-2.1c0.2-0.1,0.5-0.2,0.7-0.2c0.2,0,0.4,0,0.5,0.1
				l0.2,0.1l3-1.6v-7.6l-13.8-8L32.4,6.1z M8.9,53.4v-7.5L0.5,41v-18l8.4-4.9V9.6l15.6-9l7,4l7-4l15.6,9v8.6l8.4,4.9v18L54,45.9v7.5
				l-15.6,9l-7-4l-7,4L8.9,53.4z"/>
			<path class="st1" d="M38.5,63l-7-4l-7,4L8.4,53.7v-7.5L0,41.3V22.8l8.4-4.9V9.3L24.5,0l7,4l7-4l16.1,9.3v8.6l8.4,4.9v18.5
				l-8.4,4.9v7.5L38.5,63z M9.4,53.1l15.1,8.7l7-4l7,4l15.1-8.7v-7.5l8.4-4.9V23.4l-8.4-4.9V9.9L38.5,1.2l-7,4l-7-4L9.4,9.9v8.6
				L1,23.4v17.4l8.4,4.9V53.1z M38.5,61l-6.6-3.8V5.8L38.5,2l14.3,8.3v8.2l-3.4,1.9l-0.4-0.1c-0.3-0.1-0.6-0.1-0.9,0.1
				c-0.5,0.3-0.7,0.9-0.4,1.5c0.3,0.5,0.9,0.7,1.5,0.4c0.3-0.1,0.4-0.4,0.5-0.7l0.1-0.4l3.4-1.9l8.1,4.7v8.3h-3.7l-0.3-0.3
				c-0.2-0.2-0.5-0.4-0.8-0.4c-0.6,0-1.1,0.5-1.1,1.1c0,0.6,0.5,1.1,1.1,1.1c0.3,0,0.6-0.1,0.8-0.4l0.3-0.3h3.7v7.5L53.1,45
				l-3.3-1.6L49.7,43c-0.1-0.3-0.3-0.5-0.6-0.7c-0.5-0.2-1.2,0-1.4,0.5c-0.3,0.5,0,1.2,0.5,1.4c0.3,0.1,0.6,0.1,0.9,0l0.4-0.2
				l3.3,1.6v7.1L38.5,61z M32.9,56.6l5.6,3.2l13.3-7.7v-5.9l-2.3-1.1c-0.5,0.2-1.2,0.2-1.7,0c-1-0.5-1.5-1.7-1-2.8
				c0.5-1,1.8-1.4,2.8-1c0.5,0.3,0.9,0.7,1.1,1.3l2.5,1.2l7.1-4.1v-5.9H58c-0.4,0.4-0.9,0.7-1.5,0.7c-1.1,0-2.1-0.9-2.1-2.1
				c0-1.1,0.9-2.1,2.1-2.1c0.6,0,1.1,0.2,1.5,0.7h2.3v-6.7l-7.1-4.1l-2.5,1.4c-0.1,0.6-0.5,1.1-1,1.3c-1,0.5-2.3,0.2-2.8-0.8
				c-0.6-1-0.2-2.3,0.8-2.8c0.5-0.3,1.1-0.3,1.7-0.1l0,0l2.5-1.4v-7L38.5,3.2l-5.6,3.2V56.6z M24.5,61l-14.3-8.3v-7.1l3.3-1.6
				l0.4,0.2c0.3,0.1,0.6,0.1,0.9,0c0.3-0.1,0.5-0.3,0.5-0.6c0.1-0.3,0.1-0.6,0-0.8c-0.2-0.5-0.9-0.8-1.4-0.5
				c-0.3,0.1-0.5,0.4-0.6,0.7l-0.1,0.4L9.8,45l-8.1-4.7v-7.5h3.7l0.3,0.3c0.2,0.2,0.5,0.4,0.8,0.4c0.6,0,1.1-0.5,1.1-1.1
				c0-0.6-0.5-1.1-1.1-1.1c-0.3,0-0.6,0.1-0.8,0.4l-0.3,0.3H1.8v-8.3l8.1-4.7l3.4,1.9l0.1,0.4c0.1,0.3,0.2,0.6,0.5,0.7
				c0.5,0.3,1.2,0.1,1.5-0.4c0.1-0.2,0.2-0.5,0.1-0.8c-0.1-0.3-0.3-0.5-0.5-0.6c-0.3-0.1-0.6-0.2-0.9-0.1l-0.4,0.1l-3.4-1.9v-8.2
				L24.5,2l6.6,3.8v51.3L24.5,61z M11.2,52.1l13.3,7.7l5.6-3.2V6.4l-5.6-3.2l-13.3,7.7v7l2.5,1.4c0.6-0.2,1.2-0.1,1.7,0.1
				c0.5,0.3,0.8,0.7,1,1.2c0.2,0.5,0.1,1.1-0.2,1.6c-0.5,1-1.8,1.3-2.8,0.8c-0.5-0.3-0.9-0.8-1-1.3v0l-2.5-1.4l-7.1,4.1v6.7H5
				c0.4-0.4,0.9-0.7,1.5-0.7c1.1,0,2.1,0.9,2.1,2.1c0,1.1-0.9,2.1-2.1,2.1c-0.6,0-1.1-0.2-1.5-0.7H2.8v5.9l7.1,4.1l2.5-1.2
				c0.2-0.6,0.6-1,1.1-1.3c1-0.5,2.3,0,2.8,1c0.2,0.5,0.3,1.1,0.1,1.6c-0.2,0.5-0.6,0.9-1.1,1.2c-0.5,0.3-1.1,0.3-1.7,0h0l-2.3,1.1
				V52.1z"/>
			<path id="Fill-9" class="st0" d="M42.9,52.4c-0.4,0-0.8-0.2-1.1-0.4c-0.3-0.3-0.5-0.7-0.5-1.2l0-0.2l-2.1-2V39l6-2.7v-7.4l-6-4
				v-9.2l2-1.5l0-0.2c0-0.5,0.2-0.9,0.6-1.1c0.3-0.2,0.6-0.3,1-0.3c0.5,0,0.9,0.2,1.2,0.6c0.3,0.3,0.4,0.7,0.3,1.2
				c-0.1,0.4-0.3,0.8-0.6,1c-0.3,0.2-0.6,0.3-0.9,0.3c-0.1,0-0.2,0-0.3,0l-0.2,0l-1.3,1v7.5l6,4v9.5l-6,2.7v7.7l1.6,1.5l0.3,0
				c0.4,0,0.8,0.2,1.1,0.4c0.3,0.3,0.5,0.7,0.5,1.1c0,0.4-0.1,0.8-0.4,1.1C43.8,52.3,43.4,52.4,42.9,52.4"/>
			<path class="st1" d="M42.9,52.9c-0.5,0-1-0.2-1.4-0.6c-0.4-0.4-0.6-1-0.6-1.6l-2.1-2V38.6l6-2.7v-6.8l-6-4v-9.8l2-1.5
				c0-0.6,0.3-1.1,0.8-1.5c0.9-0.7,2.2-0.5,2.9,0.4c0.3,0.4,0.5,1,0.4,1.5c-0.1,0.5-0.4,1-0.8,1.4c-0.5,0.4-1.1,0.5-1.6,0.4
				l-0.9,0.7v6.9l6,4v10.1l-6,2.7v7.2l1.3,1.2l0.1,0c0,0,0,0,0,0c0.6,0,1.1,0.2,1.5,0.6c0.4,0.4,0.6,0.9,0.6,1.4
				c0,0.6-0.2,1.1-0.6,1.5C44,52.7,43.5,52.9,42.9,52.9z M39.7,48.3l2.1,2.1l0,0.4c0,0.3,0.1,0.6,0.3,0.8c0.4,0.4,1.1,0.4,1.5,0
				c0.2-0.2,0.3-0.5,0.3-0.8c0-0.3-0.1-0.5-0.3-0.7c-0.2-0.2-0.5-0.3-0.7-0.3l-0.5,0L40.5,48v-8.2l6-2.7v-8.9l-6-4v-8l1.6-1.3
				l0.4,0.1c0.3,0.1,0.6,0,0.8-0.2c0.2-0.2,0.4-0.4,0.4-0.7s0-0.6-0.2-0.8c-0.3-0.5-1-0.5-1.5-0.2c-0.2,0.2-0.4,0.5-0.4,0.8l0,0.4
				l-1.9,1.5v8.7l6,4v8l-6,2.7V48.3z"/>
		</g>
	</g>
</g>
</svg>
