
<svg width="63px" height="63px" viewBox="0 0 63 63" version="1.1" xmlns="http://www.w3.org/2000/svg" xmlns:xlink="http://www.w3.org/1999/xlink">
    <g id="Symbols" stroke="none" stroke-width="1" fill="none" fill-rule="evenodd">
        <g id="Icons" transform="translate(-633.000000, -129.000000)">
            <g id="icon" transform="translate(633.000000, 129.000000)">
                <path d="M20.0498,52.43 C19.6178,52.43 19.2158,52.258 18.9178,51.947 C18.6278,51.645 18.4728,51.248 18.4818,50.829 C18.4898,50.411 18.6608,50.021 18.9638,49.732 C19.2528,49.454 19.6378,49.302 20.0478,49.302 L20.3908,49.323 L21.9868,47.793 L21.9868,40.096 L15.9828,37.375 L15.9828,27.899 L21.9868,23.865 L21.9868,16.409 L20.7168,15.43 L20.4978,15.471 C20.3998,15.489 20.2998,15.498 20.2008,15.498 C19.8548,15.498 19.5278,15.388 19.2558,15.178 C18.5718,14.651 18.4438,13.664 18.9718,12.981 C19.2708,12.592 19.7238,12.369 20.2148,12.369 C20.5638,12.369 20.8928,12.482 21.1688,12.695 C21.5218,12.966 21.7348,13.367 21.7688,13.822 L21.7858,14.043 L23.7378,15.548 L23.7378,24.796 L17.7318,28.831 L17.7318,36.247 L23.7378,38.968 L23.7378,48.539 L21.5998,50.587 L21.6078,50.811 C21.6228,51.266 21.4548,51.686 21.1328,51.995 C20.8408,52.276 20.4558,52.43 20.0498,52.43" id="Fill-1" fill="#133E68"></path>
                <path d="M20.0498,52.43 C19.6178,52.43 19.2158,52.258 18.9178,51.947 C18.6278,51.645 18.4728,51.248 18.4818,50.829 C18.4898,50.411 18.6608,50.021 18.9638,49.732 C19.2528,49.454 19.6378,49.302 20.0478,49.302 L20.3908,49.323 L21.9868,47.793 L21.9868,40.096 L15.9828,37.375 L15.9828,27.899 L21.9868,23.865 L21.9868,16.409 L20.7168,15.43 L20.4978,15.471 C20.3998,15.489 20.2998,15.498 20.2008,15.498 C19.8548,15.498 19.5278,15.388 19.2558,15.178 C18.5718,14.651 18.4438,13.664 18.9718,12.981 C19.2708,12.592 19.7238,12.369 20.2148,12.369 C20.5638,12.369 20.8928,12.482 21.1688,12.695 C21.5218,12.966 21.7348,13.367 21.7688,13.822 L21.7858,14.043 L23.7378,15.548 L23.7378,24.796 L17.7318,28.831 L17.7318,36.247 L23.7378,38.968 L23.7378,48.539 L21.5998,50.587 L21.6078,50.811 C21.6228,51.266 21.4548,51.686 21.1328,51.995 C20.8408,52.276 20.4558,52.43 20.0498,52.43 Z" id="Stroke-3" stroke="#133E68"></path>
                <path d="M10.6953,45.9729 L10.6953,52.4269 L24.5093,60.4019 L30.6133,56.8709 L30.6133,36.5699 L30.5863,31.4939 L30.6133,27.4529 L30.6133,6.1149 L24.5113,2.5969 L10.6953,10.5749 L10.6953,18.1899 L13.6583,19.8269 L13.8693,19.7539 C14.0413,19.6939 14.2183,19.6629 14.3983,19.6629 C14.6603,19.6629 14.9093,19.7279 15.1383,19.8549 C15.8953,20.2729 16.1713,21.2289 15.7533,21.9849 C15.4763,22.4849 14.9503,22.7949 14.3783,22.7949 C14.1153,22.7949 13.8533,22.7269 13.6223,22.5989 C13.2333,22.3839 12.9633,22.0209 12.8603,21.5759 L12.8103,21.3579 L9.8293,19.7109 L2.2503,24.0859 L2.2503,31.6199 L5.2273,31.6199 L5.3763,31.4539 C5.6803,31.1149 6.0923,30.9279 6.5383,30.9279 C7.4023,30.9279 8.1053,31.6309 8.1053,32.4939 C8.1053,33.3599 7.4023,34.0629 6.5383,34.0629 C6.0923,34.0629 5.6793,33.8759 5.3773,33.5359 L5.2273,33.3689 L2.2503,33.3689 L2.2503,40.0399 L9.8593,44.4319 L12.7583,43.0429 L12.8213,42.8289 C12.9503,42.3919 13.2403,42.0449 13.6403,41.8549 C13.8553,41.7519 14.0833,41.6999 14.3173,41.6999 C14.9173,41.6999 15.4723,42.0499 15.7323,42.5909 C15.9133,42.9679 15.9363,43.3939 15.7983,43.7879 C15.6583,44.1829 15.3743,44.4999 14.9963,44.6809 C14.7873,44.7819 14.5653,44.8309 14.3353,44.8309 C14.1253,44.8309 13.9183,44.7899 13.7183,44.7069 L13.5123,44.6209 L10.6953,45.9729 Z M32.3623,6.1149 L32.3623,27.4509 L32.3903,31.4999 L32.3623,36.5589 L32.3623,56.8709 L38.4663,60.4019 L52.2803,52.4269 L52.2803,45.9729 L49.4573,44.6189 L49.2513,44.7029 C49.0543,44.7849 48.8483,44.8259 48.6403,44.8259 C48.4103,44.8259 48.1883,44.7759 47.9793,44.6749 C47.2003,44.3019 46.8703,43.3639 47.2433,42.5839 C47.5023,42.0429 48.0573,41.6939 48.6583,41.6939 C48.8923,41.6939 49.1203,41.7449 49.3343,41.8479 C49.7353,42.0389 50.0273,42.3879 50.1553,42.8289 L50.2173,43.0439 L53.1163,44.4319 L60.7253,40.0399 L60.7253,33.3689 L57.7483,33.3689 L57.5993,33.5349 C57.2953,33.8749 56.8823,34.0629 56.4373,34.0629 C55.5733,34.0629 54.8703,33.3599 54.8703,32.4939 C54.8703,31.6309 55.5733,30.9279 56.4373,30.9279 C56.8823,30.9279 57.2953,31.1149 57.5993,31.4539 L57.7493,31.6199 L60.7253,31.6199 L60.7253,24.0859 L53.1453,19.7109 L50.1623,21.3589 L50.1123,21.5769 C50.0093,22.0219 49.7403,22.3849 49.3503,22.5999 C49.1193,22.7279 48.8573,22.7959 48.5943,22.7959 C48.0233,22.7959 47.4973,22.4859 47.2203,21.9859 C46.8023,21.2299 47.0783,20.2749 47.8343,19.8559 C48.0633,19.7289 48.3133,19.6639 48.5763,19.6639 C48.7553,19.6639 48.9323,19.6949 49.1043,19.7539 L49.3153,19.8279 L52.2803,18.1899 L52.2803,10.5749 L38.4643,2.5969 L32.3623,6.1149 Z M8.9453,53.4359 L8.9453,45.9259 L0.5003,41.0479 L0.5003,23.0769 L8.9453,18.2019 L8.9453,9.5639 L24.5093,0.5769 L31.4883,4.5999 L38.4663,0.5769 L54.0293,9.5639 L54.0293,18.2019 L62.4753,23.0769 L62.4753,41.0489 L54.0293,45.9259 L54.0293,53.4359 L38.4643,62.4229 L31.4883,58.3879 L24.5113,62.4229 L8.9453,53.4359 Z" id="Fill-5" fill="#133E68"></path>
                <path d="M10.6953,45.9729 L10.6953,52.4269 L24.5093,60.4019 L30.6133,56.8709 L30.6133,36.5699 L30.5863,31.4939 L30.6133,27.4529 L30.6133,6.1149 L24.5113,2.5969 L10.6953,10.5749 L10.6953,18.1899 L13.6583,19.8269 L13.8693,19.7539 C14.0413,19.6939 14.2183,19.6629 14.3983,19.6629 C14.6603,19.6629 14.9093,19.7279 15.1383,19.8549 C15.8953,20.2729 16.1713,21.2289 15.7533,21.9849 C15.4763,22.4849 14.9503,22.7949 14.3783,22.7949 C14.1153,22.7949 13.8533,22.7269 13.6223,22.5989 C13.2333,22.3839 12.9633,22.0209 12.8603,21.5759 L12.8103,21.3579 L9.8293,19.7109 L2.2503,24.0859 L2.2503,31.6199 L5.2273,31.6199 L5.3763,31.4539 C5.6803,31.1149 6.0923,30.9279 6.5383,30.9279 C7.4023,30.9279 8.1053,31.6309 8.1053,32.4939 C8.1053,33.3599 7.4023,34.0629 6.5383,34.0629 C6.0923,34.0629 5.6793,33.8759 5.3773,33.5359 L5.2273,33.3689 L2.2503,33.3689 L2.2503,40.0399 L9.8593,44.4319 L12.7583,43.0429 L12.8213,42.8289 C12.9503,42.3919 13.2403,42.0449 13.6403,41.8549 C13.8553,41.7519 14.0833,41.6999 14.3173,41.6999 C14.9173,41.6999 15.4723,42.0499 15.7323,42.5909 C15.9133,42.9679 15.9363,43.3939 15.7983,43.7879 C15.6583,44.1829 15.3743,44.4999 14.9963,44.6809 C14.7873,44.7819 14.5653,44.8309 14.3353,44.8309 C14.1253,44.8309 13.9183,44.7899 13.7183,44.7069 L13.5123,44.6209 L10.6953,45.9729 Z M32.3623,6.1149 L32.3623,27.4509 L32.3903,31.4999 L32.3623,36.5589 L32.3623,56.8709 L38.4663,60.4019 L52.2803,52.4269 L52.2803,45.9729 L49.4573,44.6189 L49.2513,44.7029 C49.0543,44.7849 48.8483,44.8259 48.6403,44.8259 C48.4103,44.8259 48.1883,44.7759 47.9793,44.6749 C47.2003,44.3019 46.8703,43.3639 47.2433,42.5839 C47.5023,42.0429 48.0573,41.6939 48.6583,41.6939 C48.8923,41.6939 49.1203,41.7449 49.3343,41.8479 C49.7353,42.0389 50.0273,42.3879 50.1553,42.8289 L50.2173,43.0439 L53.1163,44.4319 L60.7253,40.0399 L60.7253,33.3689 L57.7483,33.3689 L57.5993,33.5349 C57.2953,33.8749 56.8823,34.0629 56.4373,34.0629 C55.5733,34.0629 54.8703,33.3599 54.8703,32.4939 C54.8703,31.6309 55.5733,30.9279 56.4373,30.9279 C56.8823,30.9279 57.2953,31.1149 57.5993,31.4539 L57.7493,31.6199 L60.7253,31.6199 L60.7253,24.0859 L53.1453,19.7109 L50.1623,21.3589 L50.1123,21.5769 C50.0093,22.0219 49.7403,22.3849 49.3503,22.5999 C49.1193,22.7279 48.8573,22.7959 48.5943,22.7959 C48.0233,22.7959 47.4973,22.4859 47.2203,21.9859 C46.8023,21.2299 47.0783,20.2749 47.8343,19.8559 C48.0633,19.7289 48.3133,19.6639 48.5763,19.6639 C48.7553,19.6639 48.9323,19.6949 49.1043,19.7539 L49.3153,19.8279 L52.2803,18.1899 L52.2803,10.5749 L38.4643,2.5969 L32.3623,6.1149 Z M8.9453,53.4359 L8.9453,45.9259 L0.5003,41.0479 L0.5003,23.0769 L8.9453,18.2019 L8.9453,9.5639 L24.5093,0.5769 L31.4883,4.5999 L38.4663,0.5769 L54.0293,9.5639 L54.0293,18.2019 L62.4753,23.0769 L62.4753,41.0489 L54.0293,45.9259 L54.0293,53.4359 L38.4643,62.4229 L31.4883,58.3879 L24.5113,62.4229 L8.9453,53.4359 Z" id="Stroke-7" stroke="#133E68"></path>
                <path d="M42.9258,52.4271 C42.5208,52.4271 42.1348,52.2731 41.8418,51.9911 C41.5218,51.6851 41.3528,51.2651 41.3678,50.8101 L41.3748,50.5861 L39.2378,48.5381 L39.2378,38.9681 L45.2438,36.2471 L45.2438,28.8311 L39.2378,24.7961 L39.2378,15.5481 L41.1908,14.0441 L41.2068,13.8221 C41.2398,13.3651 41.4528,12.9661 41.8048,12.6961 C42.0818,12.4821 42.4108,12.3691 42.7598,12.3691 C43.2498,12.3691 43.7028,12.5921 44.0028,12.9801 C44.2578,13.3111 44.3688,13.7231 44.3168,14.1381 C44.2628,14.5531 44.0498,14.9231 43.7188,15.1781 C43.4468,15.3871 43.1208,15.4971 42.7738,15.4971 C42.6738,15.4971 42.5748,15.4891 42.4778,15.4701 L42.2578,15.4301 L40.9888,16.4081 L40.9888,23.8651 L46.9928,27.9001 L46.9928,37.3751 L40.9888,40.0971 L40.9888,47.7931 L42.5828,49.3211 L42.9288,49.3001 C43.3388,49.3001 43.7228,49.4521 44.0108,49.7291 C44.3138,50.0191 44.4848,50.4081 44.4928,50.8261 C44.5028,51.2451 44.3478,51.6421 44.0588,51.9441 C43.7598,52.2561 43.3578,52.4271 42.9258,52.4271" id="Fill-9" fill="#133E68"></path>
                <path d="M42.9258,52.4271 C42.5208,52.4271 42.1348,52.2731 41.8418,51.9911 C41.5218,51.6851 41.3528,51.2651 41.3678,50.8101 L41.3748,50.5861 L39.2378,48.5381 L39.2378,38.9681 L45.2438,36.2471 L45.2438,28.8311 L39.2378,24.7961 L39.2378,15.5481 L41.1908,14.0441 L41.2068,13.8221 C41.2398,13.3651 41.4528,12.9661 41.8048,12.6961 C42.0818,12.4821 42.4108,12.3691 42.7598,12.3691 C43.2498,12.3691 43.7028,12.5921 44.0028,12.9801 C44.2578,13.3111 44.3688,13.7231 44.3168,14.1381 C44.2628,14.5531 44.0498,14.9231 43.7188,15.1781 C43.4468,15.3871 43.1208,15.4971 42.7738,15.4971 C42.6738,15.4971 42.5748,15.4891 42.4778,15.4701 L42.2578,15.4301 L40.9888,16.4081 L40.9888,23.8651 L46.9928,27.9001 L46.9928,37.3751 L40.9888,40.0971 L40.9888,47.7931 L42.5828,49.3211 L42.9288,49.3001 C43.3388,49.3001 43.7228,49.4521 44.0108,49.7291 C44.3138,50.0191 44.4848,50.4081 44.4928,50.8261 C44.5028,51.2451 44.3478,51.6421 44.0588,51.9441 C43.7598,52.2561 43.3578,52.4271 42.9258,52.4271 Z" id="Stroke-11" stroke="#133E68"></path>
            </g>
        </g>
    </g>
</svg>