<svg width="73px" height="65px" viewBox="0 0 73 65" version="1.1" xmlns="http://www.w3.org/2000/svg" xmlns:xlink="http://www.w3.org/1999/xlink">
    <defs>
        <polygon id="path-1" points="0.0004 0.0004 72.955 0.0004 72.955 64.6344 0.0004 64.6344"></polygon>
    </defs>
    <g id="Symbols" stroke="none" stroke-width="1" fill="none" fill-rule="evenodd">
        <g id="Icons" transform="translate(-17.000000, 0.000000)">
            <g id="icon" transform="translate(17.000000, 0.000000)">
                <mask id="mask-2" fill="white">
                    <use xlink:href="#path-1"></use>
                </mask>
                <g id="Clip-2"></g>
                <path d="M21.6114,64.6344 C18.5984,64.6344 16.1474,62.1834 16.1474,59.1704 C16.1474,56.1564 18.5984,53.7054 21.6114,53.7054 C21.7384,53.7054 21.8684,53.7114 22.0054,53.7224 L22.7684,53.7884 L26.6364,37.0584 L26.2034,36.7114 C25.2844,35.9754 24.5784,35.0584 24.1054,33.9854 L23.7024,33.0714 L10.5464,40.9204 L10.7284,41.5704 C10.8624,42.0494 10.9294,42.5374 10.9294,43.0224 C10.9294,46.0354 8.4784,48.4874 5.4644,48.4874 C2.4514,48.4874 0.0004,46.0354 0.0004,43.0224 C0.0004,40.0094 2.4514,37.5574 5.4644,37.5574 C6.8264,37.5574 8.1314,38.0624 9.1354,38.9804 L9.6204,39.4224 L23.4724,31.1594 L23.4964,30.6884 C23.5834,28.9624 24.2514,27.3844 25.4274,26.1254 L25.9514,25.5664 L11.0274,6.9254 L10.5434,6.9804 C10.4514,6.9904 10.3584,6.9974 10.2634,6.9974 C8.3344,6.9974 6.7634,5.4274 6.7634,3.4994 C6.7634,1.5704 8.3344,0.0004 10.2634,0.0004 C12.1914,0.0004 13.7614,1.5704 13.7614,3.4994 C13.7614,4.2534 13.5184,4.9754 13.0604,5.5864 L12.6494,6.1344 L27.4204,24.5844 L28.0304,24.3374 C28.8944,23.9864 29.8034,23.8084 30.7334,23.8084 C31.5344,23.8084 32.3274,23.9424 33.0904,24.2054 L33.5404,24.3604 L48.7514,12.6254 L48.6094,12.0634 C48.4994,11.6264 48.4434,11.1774 48.4434,10.7284 C48.4434,7.7144 50.8944,5.2624 53.9074,5.2624 C56.9204,5.2624 59.3724,7.7144 59.3724,10.7284 C59.3724,11.5324 59.1874,12.3444 58.8394,13.0744 L58.5584,13.6654 L67.8854,22.2054 L68.3744,22.0484 C68.7154,21.9394 69.0724,21.8834 69.4324,21.8834 C71.3754,21.8834 72.9554,23.4644 72.9554,25.4074 C72.9554,27.3504 71.3754,28.9304 69.4324,28.9304 C67.4894,28.9304 65.9084,27.3504 65.9084,25.4074 C65.9084,24.8994 66.0214,24.4024 66.2444,23.9324 L66.5234,23.3424 L57.3904,14.9824 L56.8194,15.3454 C55.9864,15.8744 54.9934,16.1544 53.9484,16.1544 C52.5244,16.1544 51.1434,15.6234 50.1624,14.6974 L49.6134,14.1804 L35.2204,25.2854 L35.9174,25.9954 C37.1614,27.2674 37.8934,28.9454 37.9784,30.7194 L38.0054,31.2724 L49.3274,36.1184 L49.7424,35.7784 C50.3784,35.2564 51.1474,34.9804 51.9654,34.9804 C53.9084,34.9804 55.4894,36.5614 55.4894,38.5044 C55.4894,40.4474 53.9084,42.0284 51.9654,42.0284 C50.0234,42.0284 48.4434,40.4474 48.4434,38.5044 C48.4434,38.4414 48.4464,38.3784 48.4514,38.3164 L48.5074,37.6794 L37.7504,33.0774 L37.4044,33.8934 C36.2654,36.5764 33.6484,38.3114 30.7344,38.3114 C30.1834,38.3114 29.6344,38.2484 29.1024,38.1264 L28.2424,37.9284 L24.4244,54.4504 L24.8834,54.7964 C26.2774,55.8384 27.0774,57.4324 27.0774,59.1704 C27.0774,62.1834 24.6254,64.6344 21.6114,64.6344" id="Fill-1" fill="#133E68" mask="url(#mask-2)"></path>
            </g>
        </g>
    </g>
</svg>