
<svg width="17px" height="14px" viewBox="0 0 17 14" version="1.1" xmlns="http://www.w3.org/2000/svg" xmlns:xlink="http://www.w3.org/1999/xlink">
    <g id="Desktop" stroke="none" stroke-width="1" fill="none" fill-rule="evenodd">
        <g id="OS-Home" transform="translate(-1341.000000, -5940.000000)" fill="#1DA1F2">
            <g id="twitter-feed" transform="translate(950.000000, 5917.000000)">
                <g id="top" transform="translate(21.000000, 21.000000)">
                    <path d="M387,3.6625 C386.518187,4.37708691 385.935706,4.98593498 385.252538,5.4890625 C385.259729,5.59114634 385.263325,5.74426981 385.263325,5.9484375 C385.263325,6.89635891 385.126693,7.8424432 384.853426,8.78671875 C384.580159,9.7309943 384.164872,10.6369748 383.607551,11.5046875 C383.05023,12.3724002 382.386848,13.1398404 381.617386,13.8070313 C380.847923,14.4742221 379.920268,15.0065084 378.834391,15.4039062 C377.748514,15.8013041 376.587147,16 375.350254,16 C373.401428,16 371.618028,15.4713595 370,14.4140625 C370.251693,14.4432293 370.532147,14.4578125 370.841371,14.4578125 C372.459399,14.4578125 373.90122,13.9546925 375.166878,12.9484375 C374.411798,12.9338541 373.735832,12.6987002 373.138959,12.2429688 C372.542087,11.7872373 372.132192,11.2057327 371.909264,10.4984375 C372.146575,10.534896 372.365904,10.553125 372.567259,10.553125 C372.876482,10.553125 373.182105,10.5130212 373.484137,10.4328125 C372.678718,10.2651033 372.011741,9.85859698 371.483185,9.21328125 C370.954629,8.56796552 370.690355,7.81875427 370.690355,6.965625 L370.690355,6.921875 C371.179359,7.19895972 371.704312,7.34843739 372.265228,7.3703125 C371.790607,7.04947756 371.413072,6.63021092 371.132614,6.1125 C370.852156,5.59478908 370.711929,5.03333636 370.711929,4.428125 C370.711929,3.78645512 370.870134,3.19219023 371.186548,2.6453125 C372.056688,3.73177627 373.115582,4.60129882 374.363261,5.25390625 C375.610941,5.90651368 376.946693,6.26927047 378.370558,6.3421875 C378.313028,6.06510278 378.284264,5.79531381 378.284264,5.5328125 C378.284264,4.55572428 378.624045,3.7226597 379.303617,3.03359375 C379.983189,2.3445278 380.804775,2 381.768401,2 C382.775174,2 383.623728,2.37187128 384.314086,3.115625 C385.097931,2.96249923 385.835022,2.67812708 386.525381,2.2625 C386.259305,3.10104586 385.748735,3.7499977 384.993655,4.209375 C385.66244,4.13645797 386.331215,3.95416813 387,3.6625 Z" id="logo"></path>
                </g>
            </g>
        </g>
    </g>
</svg>