
<svg width="91px" height="89px" viewBox="0 0 91 89" version="1.1" xmlns="http://www.w3.org/2000/svg" xmlns:xlink="http://www.w3.org/1999/xlink">
    <g id="Desktop" stroke="none" stroke-width="1" fill="none" fill-rule="evenodd" opacity="0.98">
        <g id="OS-Home" transform="translate(-675.000000, -3356.000000)" fill="#ED1944" fill-rule="nonzero">
            <g id="projects-module" transform="translate(198.000000, 2980.000000)">
                <g id="projects-logos" transform="translate(97.000000, 366.000000)">
                    <g id="OpenStack-Logo-Mark" transform="translate(380.000000, 10.000000)">
                        <g id="Group" transform="translate(0.000000, 0.377119)">
                            <path d="M82.2197297,0 L8.43594595,0 C3.79065818,0.0133884044 0.0282645125,3.74253844 0.0147567568,8.34678153 L0.0147567568,28.0192485 L20.4823784,28.0192485 L20.4823784,24.8063227 C20.4823784,22.3129378 22.521685,20.29165 25.0372973,20.29165 L65.6331351,20.29165 C68.1487474,20.29165 70.1880541,22.3129378 70.1880541,24.8063227 L70.1880541,28.0192485 L90.6704324,28.0192485 L90.6704324,8.34678153 C90.6541727,3.73225355 86.8754225,-2.81421607e-05 82.2197297,1.38568808e-14 L82.2197297,0 Z" id="Path"></path>
                            <path d="M70.1732973,63.1274108 C70.1705863,65.6196818 68.1328668,67.6393964 65.6183784,67.6420835 L25.0225405,67.6420835 C22.5080521,67.6393964 20.4703327,65.6196818 20.4676216,63.1274108 L20.4676216,59.914485 L0,59.914485 L0,79.5820765 C0.0108067065,84.1882235 3.77398769,87.9203326 8.42118919,87.9337335 L82.204973,87.9337335 C86.8683376,87.9418244 90.6568675,84.2042243 90.6704324,79.5820765 L90.6704324,59.914485 L70.1732973,59.914485 L70.1732973,63.1274108 Z" id="Path"></path>
                            <rect id="Rectangle" x="0" y="33.8210418" width="20.4725405" height="20.29165"></rect>
                            <rect id="Rectangle" x="70.1732973" y="33.8210418" width="20.4725405" height="20.29165"></rect>
                        </g>
                    </g>
                </g>
            </g>
        </g>
    </g>
</svg>