
<svg width="166px" height="203px" viewBox="0 0 166 203" version="1.1" xmlns="http://www.w3.org/2000/svg" xmlns:xlink="http://www.w3.org/1999/xlink">
    <g id="Desktop" stroke="none" stroke-width="1" fill="none" fill-rule="evenodd">
        <g id="OS-OSF-Projects" transform="translate(-96.000000, -1763.000000)" fill="#F05C3F">
            <g id="KATA" transform="translate(50.000000, 1719.000000)">
                <path d="M128.999792,44 L46,126.540683 L65.0638272,145.499793 L46,164.458903 L128.999792,247 L212,164.458903 L192.933257,145.499793 L212,126.540683 L128.999792,44 Z M60,125.799812 L128.999587,57 L198,125.799812 L185.765626,138 L128.999587,81.3946055 L72.2302397,138 L60,125.799812 Z M134,100 L155,120.502046 L134,141 L134,100 Z M78,145.500207 L124,100 L124,191 L78,145.500207 Z M143,145.953222 L160.949278,128 L179,146.050936 L161.050722,164 L143,145.953222 Z M134,149 L155,169.998957 L134,191 L134,149 Z M185.765626,153 L198,165.19924 L128.999587,234 L60,165.19924 L72.2302397,153 L128.999587,209.606467 L185.765626,153 Z" id="Fill-1"></path>
            </g>
        </g>
    </g>
</svg>