
<svg width="161px" height="146px" viewBox="0 0 161 146" version="1.1" xmlns="http://www.w3.org/2000/svg" xmlns:xlink="http://www.w3.org/1999/xlink">
    <g id="Desktop" stroke="none" stroke-width="1" fill="none" fill-rule="evenodd">
        <g id="OS-OSF-Projects" transform="translate(-115.000000, -2241.000000)" fill-rule="nonzero">
            <g id="STARLINGX" transform="translate(50.000000, 2198.000000)">
                <g id="StarlingX_Icon_RGB_Stacked_2color" transform="translate(65.000000, 43.000000)">
                    <polygon id="Path" fill="#685BC7" points="77 28.4841382 56.215532 0 0 0 48.892234 67"></polygon>
                    <path d="M71,99.5780905 L104.948636,146 L161,146 L112.001021,79 C101.232015,90.5819095 85.5644243,98.5276382 71,99.5780905 Z" id="Path" fill="#685BC7"></path>
                    <path d="M38.2489069,131.794786 L68.0241296,91.3981816 L68.4412955,91.3981816 C83.8373279,91.3981816 101.879757,81.6870767 111.657085,67.9960108 L142.123239,26.6574821 C147.289778,20.0402761 153.708778,14.5455666 161,10.4988403 C152.813117,7.04954077 140.350283,5.19222562 140.350283,5.19222562 C135.526802,1 124.511012,1 124.511012,1 C105.360486,1 96.2610526,13.3378792 96.2610526,13.3378792 L54.2706883,70.3839874 C79.248502,70.2247889 84.2544939,66.2978941 99.5462348,46.1858243 L102.740162,41.7946006 C105.937989,37.3943307 110.998299,34.7998248 116.376275,34.8031357 L105.021538,50.404583 C88.400081,72.2943687 81.5559514,77.3887188 52.6411336,77.3887188 L49.134332,77.3887188 L0,144 L12.045668,144 C21.2363563,144 32.4476923,139.038315 38.2489069,131.794786 Z" id="Path" fill="#330072"></path>
                </g>
            </g>
        </g>
    </g>
</svg>