
<svg width="158px" height="142px" viewBox="0 0 158 142" version="1.1" xmlns="http://www.w3.org/2000/svg" xmlns:xlink="http://www.w3.org/1999/xlink">
    <g id="Desktop" stroke="none" stroke-width="1" fill="none" fill-rule="evenodd">
        <g id="OS-OSF-Projects" transform="translate(-99.000000, -1283.000000)" fill-rule="nonzero">
            <g id="AIRSHIP" transform="translate(50.000000, 1239.000000)">
                <g id="Airship_Icon_2Color_RGB" transform="translate(49.000000, 44.000000)">
                    <path d="M56.2490424,130.963115 L47.2459083,125.754098 C44.4949507,124.229508 42.6192977,121.434426 41.9940801,118.385246 L38.6179048,100.852459 C34.1163378,93.2295082 29.1145967,79 29.1145967,79 L1.10484624,128.67623 C-2.02124198,134.139344 1.85510741,141 8.10728384,141 L52.372693,141 C53.3730412,141 54.3733894,140.364754 54.8735636,139.47541 L59,132.106557 C58.1246953,131.852459 57.1243471,131.471311 56.2490424,130.963115 Z" id="Path" fill="#65C7C2"></path>
                    <path d="M86.251928,4.12726626 C83.1028278,-1.37575542 75.2930591,-1.37575542 72.1439589,4.12726626 L37,66.0682545 C38.0077121,64.6605048 39.5192802,63.5087096 41.2827763,63.1247778 C52.7455013,60.0533239 75.7969152,55.9580519 93.6838046,66.4521863 C102.879177,71.8272307 109.429306,80.2737291 114.089974,88.8482048 L132.732648,88.8482048 C133.74036,88.8482048 134.496144,89.2321365 135,90 L86.251928,4.12726626 Z" id="Path" fill="#141F47"></path>
                    <path d="M156.996416,128.407407 L135.043011,91 C135.419355,91.9876543 135.293907,93.0987654 134.415771,94.0864198 L123,105.691358 L158,131 C157.749104,130.135802 157.37276,129.271605 156.996416,128.407407 Z" id="Path" fill="#65C7C2"></path>
                    <path d="M75.6002788,99.0016485 C59.3416164,89.401154 46.3346865,77.2405275 37.2048222,67 L36.579489,68.1520593 C35.7040226,69.5601319 35.9541559,71.3522242 36.4544224,73.0163099 C38.2053553,79.5446462 41.4570878,89.401154 47.0850863,98.6176287 L50.7120187,117.690611 C50.8370853,118.586657 51.3373518,119.354697 52.0877516,119.738717 L61.0925493,124.986987 C62.4682823,125.883033 64.3442818,125.371007 65.0946816,123.834928 L67.9712141,118.842671 C76.3506786,123.066888 85.6056095,124.218948 94.2352073,124.090941 L103.490138,140.475785 C104.740805,142.779904 108.117604,142.395884 108.868003,139.835752 L113.995735,121.530809 C115.121335,121.274796 116.246935,121.018783 117.247468,120.634763 C119.373601,120.122737 120.999467,118.714664 122,116.922572 C108.742937,113.97842 91.8589412,108.602143 75.6002788,99.0016485 Z" id="Path" fill="#141F47"></path>
                    <path d="M153,141.539936 L121.068493,126 L117,141.948882 L150.410959,141.948882 C151.273973,142.085197 152.260274,141.948882 153,141.539936 Z" id="Path" fill="#65C7C2"></path>
                </g>
            </g>
        </g>
    </g>
</svg>