<svg id="Layer_1" data-name="Layer 1" xmlns="http://www.w3.org/2000/svg" viewBox="0 0 300 60.96"><defs><style>.cls-1{fill:#fff;}.cls-2{fill:#f7b749;}.cls-3{fill:#ed362f;}.cls-4{fill:#43b85c;}.cls-5{fill:#2cb4e2;}</style></defs><path class="cls-1" d="M193.15,265.23c-3.43,0-6-.82-7.61-2.46s-2.46-4.18-2.46-7.61V244.77q0-5.19,2.48-7.63c1.64-1.62,4.18-2.42,7.59-2.39h5.4c3.44,0,6,.82,7.62,2.45s2.45,4.17,2.45,7.62v10.34q0,5.14-2.45,7.61c-1.63,1.64-4.18,2.46-7.62,2.46Zm0-3.78h5.4a10.15,10.15,0,0,0,3.78-.57,3.49,3.49,0,0,0,1.94-1.94,10.15,10.15,0,0,0,.57-3.78V244.82a10,10,0,0,0-.57-3.75,3.52,3.52,0,0,0-1.94-2,9.93,9.93,0,0,0-3.78-.58h-5.4a9.72,9.72,0,0,0-3.75.54,3.47,3.47,0,0,0-2,1.93,9.84,9.84,0,0,0-.58,3.77v10.39a10.15,10.15,0,0,0,.57,3.78,3.51,3.51,0,0,0,1.95,1.94A10.06,10.06,0,0,0,193.15,261.45Z" transform="translate(-100 -219.52)"/><path class="cls-1" d="M218.33,274.22a1.67,1.67,0,0,1-1.89-1.89v-28a1.89,1.89,0,1,1,3.78,0v.56a7.73,7.73,0,0,1,3-1.83,12,12,0,0,1,4-.62h1.71q4.5,0,6.65,2.15t2.16,6.66v5.17c0,3-.72,5.2-2.16,6.64s-3.65,2.17-6.65,2.17h-8.72v7.1A1.67,1.67,0,0,1,218.33,274.22Zm1.89-12.77h8.72q2.94,0,4-1.05c.7-.71,1-2,1-4v-5.17q0-2.94-1-4t-4-1h-1.71a15.51,15.51,0,0,0-4.85.68q-2.06.68-2.16,2.13Z" transform="translate(-100 -219.52)"/><path class="cls-1" d="M248.27,255.38v1.08c0,1.94.35,3.25,1.06,4s2,1,4,1H257a10.23,10.23,0,0,0,3.4-.42,2.38,2.38,0,0,0,1.46-1.51,2.91,2.91,0,0,1,.69-1.3,1.77,1.77,0,0,1,1.33-.45,2,2,0,0,1,1.44.49,1.55,1.55,0,0,1,.32,1.44,5.91,5.91,0,0,1-2.66,4.16,11.14,11.14,0,0,1-6,1.37h-3.68c-3,0-5.2-.72-6.65-2.16s-2.17-3.64-2.17-6.61v-5.21c0-3,.73-5.28,2.17-6.71s3.66-2.13,6.65-2.1H257q4.5,0,6.66,2.14c1.43,1.43,2.16,3.66,2.16,6.67v2.25a1.66,1.66,0,0,1-1.89,1.88Zm5-9.17c-1.95,0-3.28.31-4,1s-1.06,2-1.06,4v.36H262v-.36q0-2.94-1-4t-4-1Z" transform="translate(-100 -219.52)"/><path class="cls-1" d="M275.51,265.23a1.67,1.67,0,0,1-1.88-1.89v-19a1.89,1.89,0,1,1,3.77,0v.74c1.59-1.76,3.93-2.63,7-2.63h1.26q4.49,0,6.65,2.15t2.16,6.66v12.09a1.89,1.89,0,1,1-3.78,0V251.25c0-2-.36-3.29-1.07-4s-2-1-4-1h-1.26a16,16,0,0,0-4.7.62c-1.33.42-2.11,1.06-2.32,1.95v14.56A1.67,1.67,0,0,1,275.51,265.23Z" transform="translate(-100 -219.52)"/><path class="cls-1" d="M305.27,265.23a1.64,1.64,0,0,1-1.88-1.89V236.68a1.93,1.93,0,0,1,.46-1.44,1.89,1.89,0,0,1,3.31,1.44v26.66a2,2,0,0,1-.45,1.43A1.93,1.93,0,0,1,305.27,265.23Z" transform="translate(-100 -219.52)"/><path class="cls-1" d="M318,265.23a1.67,1.67,0,0,1-1.88-1.89v-19a1.89,1.89,0,1,1,3.77,0v.74c1.59-1.76,3.93-2.63,7-2.63h1.25q4.5,0,6.66,2.15c1.44,1.44,2.15,3.66,2.15,6.66v12.09a1.89,1.89,0,1,1-3.77,0V251.25c0-2-.36-3.29-1.07-4s-2-1-4-1h-1.25a16,16,0,0,0-4.7.62c-1.34.42-2.11,1.06-2.32,1.95v14.56A1.67,1.67,0,0,1,318,265.23Z" transform="translate(-100 -219.52)"/><path class="cls-1" d="M348.12,265.23a1.67,1.67,0,0,1-1.89-1.89V246.21h-1.66a1.89,1.89,0,1,1,0-3.77h1.66v-.18q0-4.42,2.14-6.56t6.54-2.12q1.62,0,1.62,1.89t-1.62,1.89c-1.89,0-3.18.33-3.87,1s-1,2-1,3.89v.18h4.63a1.89,1.89,0,1,1,0,3.77H350v17.13A1.67,1.67,0,0,1,348.12,265.23Z" transform="translate(-100 -219.52)"/><path class="cls-1" d="M364.17,265.23a1.67,1.67,0,0,1-1.89-1.89v-19a1.89,1.89,0,1,1,3.78,0v1.75a8.33,8.33,0,0,1,3.38-2.72,11.31,11.31,0,0,1,4.71-.92,1.89,1.89,0,1,1,0,3.77,10.3,10.3,0,0,0-5.94,1.44,4.73,4.73,0,0,0-2.15,3.8v11.89A1.67,1.67,0,0,1,364.17,265.23Z" transform="translate(-100 -219.52)"/><path class="cls-1" d="M386.69,265.23q-3.78,0-5.62-1.84t-1.84-5.62q0-3.78,1.83-5.62t5.63-1.85h9.51a4.25,4.25,0,0,0-1.23-3.22,6.26,6.26,0,0,0-3.78-.87h-2.61a13.21,13.21,0,0,0-3.35.31,2.4,2.4,0,0,0-1.55,1.09,3.59,3.59,0,0,1-.83,1.3,2,2,0,0,1-1.28.36,2,2,0,0,1-1.49-.53,1.35,1.35,0,0,1-.31-1.4,5.68,5.68,0,0,1,2.82-3.72,12.52,12.52,0,0,1,6-1.18h2.61q4.49,0,6.65,2.15t2.16,6.66v12.09a1.89,1.89,0,0,1-3.78,0v-1q-2.4,2.9-7,2.9Zm0-3.78h2.52a15.44,15.44,0,0,0,3.12-.3,6,6,0,0,0,2.51-1.11,3.84,3.84,0,0,0,1.38-2.32v-3.64h-9.53a4.25,4.25,0,0,0-2.95.74,4.31,4.31,0,0,0-.73,2.95,2.94,2.94,0,0,0,3.68,3.68Z" transform="translate(-100 -219.52)"/><polygon class="cls-2" points="0 10.16 0 15.24 34.95 15.24 0 50.19 3.59 53.78 47.21 10.16 0 10.16"/><polygon class="cls-3" points="52.29 5.08 57.37 0 0 0 0 5.08 52.29 5.08"/><polygon class="cls-4" points="55.88 8.67 55.88 60.97 60.97 60.97 60.97 3.59 55.88 8.67"/><polygon class="cls-5" points="50.8 60.97 50.8 13.75 7.18 57.37 10.78 60.97 45.72 26.02 45.72 60.97 50.8 60.97"/></svg>