<svg width="32" height="32" viewBox="0 0 32 32" fill="none" xmlns="http://www.w3.org/2000/svg">
<path d="M12.1058 24.3333H19.894M15.9999 1V2.66667M26.6065 5.3934L25.428 6.57191M31 15.9999H29.3333M2.66667 15.9999H1M6.57182 6.57191L5.39331 5.3934M10.1074 21.8926C6.85299 18.6382 6.85298 13.3619 10.1074 10.1075C13.3617 6.85311 18.6381 6.85311 21.8925 10.1075C25.1468 13.3619 25.1468 18.6382 21.8925 21.8926L20.9806 22.8044C19.9258 23.8592 19.3332 25.2899 19.3332 26.7816V27.6667C19.3332 29.5076 17.8409 31 15.9999 31C14.159 31 12.6666 29.5076 12.6666 27.6667V26.7816C12.6666 25.2899 12.074 23.8592 11.0192 22.8044L10.1074 21.8926Z" stroke="white" stroke-width="2" stroke-linecap="round" stroke-linejoin="round"/>
</svg>
